<?xml version="1.0" encoding="UTF-8" standalone="no"?>
<!-- Created with Inkscape (http://www.inkscape.org/) -->
<svg xmlns:dc="http://purl.org/dc/elements/1.1/" xmlns:cc="http://creativecommons.org/ns#" xmlns:rdf="http://www.w3.org/1999/02/22-rdf-syntax-ns#" xmlns:svg="http://www.w3.org/2000/svg" xmlns="http://www.w3.org/2000/svg" version="1.1" width="624.16" height="483.52" id="svg2985" xml:space="preserve"><metadata id="metadata2991"><rdf:RDF><cc:Work rdf:about=""><dc:format>image/svg+xml</dc:format><dc:type rdf:resource="http://purl.org/dc/dcmitype/StillImage"/><dc:title/></cc:Work></rdf:RDF></metadata><defs id="defs2989"/><g transform="matrix(1.25,0,0,-1.25,-5.6523,487.73)" id="g2993"><g transform="translate(7.9982,7.9981)" id="g2997" style="fill:#000000"><g transform="matrix(1,0,0,-1,109.4,178.15)" id="text2999" style="fill:#000000"><path d="m 1.1602,-8.3672 c 0,-2.8518 0.7656,-5.0838 2.2968,-6.6968 1.5313,-1.614 3.5078,-2.42 5.9297,-2.42 1.5863,0 3.0153,0.379 4.2893,1.136 1.273,0.758 2.244,1.815 2.912,3.17 0.668,1.356 1.002,2.893 1.002,4.6116 0,1.7422 -0.352,3.3008 -1.055,4.6758 -0.703,1.375 -1.699,2.416 -2.988,3.12302 -1.289,0.70703 -2.68,1.06055 -4.172,1.06055 -1.6172,0 -3.0625,-0.39063 -4.3359,-1.17188 C 3.7656,-1.6602 2.8008,-2.7266 2.1445,-4.0781 1.4883,-5.4297 1.1602,-6.8594 1.1602,-8.3672 z m 2.3437,0.035 c 0,2.0703 0.5566,3.7011 1.6699,4.8925 1.1133,1.1915 2.5098,1.7872 4.1895,1.7872 1.7107,0 3.1187,-0.6016 4.2247,-1.8047 1.105,-1.2032 1.658,-2.9102 1.658,-5.1211 0,-1.3985 -0.236,-2.6187 -0.709,-3.6617 -0.473,-1.043 -1.164,-1.852 -2.074,-2.426 -0.91,-0.574 -1.932,-0.861 -3.0646,-0.861 -1.6093,0 -2.9941,0.552 -4.1543,1.658 -1.1601,1.105 -1.7402,2.951 -1.7402,5.5368 z" id="path4500" style="font-size:24px;font-variant:normal;font-weight:normal;writing-mode:lr-tb;fill:#000000;fill-opacity:1;fill-rule:nonzero;stroke:none;font-family:Helvetica;-inkscape-font-specification:Helvetica"/><path d="m 9.4969,-19.85 0,-17.18 2.2731,0 0,7.055 8.93,0 0,-7.055 2.273,0 0,17.18 -2.273,0 0,-8.098 -8.93,0 0,8.098 z" id="path4502" style="font-size:24px;font-variant:normal;font-weight:normal;writing-mode:lr-tb;fill:#000000;fill-opacity:1;fill-rule:nonzero;stroke:none;font-family:Helvetica;-inkscape-font-specification:Helvetica"/></g><g transform="matrix(1,0,0,-1,134.3,193.5)" id="text3005" style="fill:#000000"><path d="M 0.75586,-3.4014 2.3379,-3.6123 c 0.1816,0.8965 0.4907,1.5425 0.9272,1.938 0.4366,0.3955 0.9683,0.5932 1.5953,0.5932 0.7441,0 1.3725,-0.2578 1.8852,-0.7734 0.5127,-0.5156 0.769,-1.1543 0.769,-1.916 0,-0.7266 -0.2373,-1.3257 -0.7119,-1.7974 -0.4746,-0.4716 -1.0781,-0.7075 -1.8105,-0.7075 -0.2988,0 -0.6709,0.059 -1.1162,0.1758 l 0.1758,-1.3887 c 0.1054,0.012 0.1904,0.018 0.2548,0.018 0.6739,0 1.2803,-0.1758 1.8194,-0.5273 0.539,-0.3516 0.8086,-0.8936 0.8086,-1.626 0,-0.5804 -0.1963,-1.0614 -0.5889,-1.4414 -0.3926,-0.381 -0.8994,-0.572 -1.5205,-0.572 -0.6152,0 -1.1279,0.194 -1.5381,0.58 -0.4101,0.387 -0.6738,0.967 -0.791,1.741 L 0.91406,-9.5977 C 1.1074,-10.658 1.5469,-11.48 2.2324,-12.063 c 0.6856,-0.583 1.5381,-0.874 2.5576,-0.875 0.7032,0 1.3506,0.151 1.9424,0.453 0.5918,0.302 1.0444,0.714 1.3579,1.235 0.3135,0.521 0.4702,1.075 0.4702,1.6611 0,0.5567 -0.1494,1.0635 -0.4482,1.5205 -0.2988,0.4571 -0.7412,0.8204 -1.3271,1.0899 0.7617,0.1758 1.3535,0.5405 1.7753,1.0942 0.4219,0.5537 0.6329,1.2466 0.6329,2.0786 0,1.125 -0.4102,2.0787 -1.2305,2.86088 C 7.1426,-0.1626 6.1055,0.22852 4.8516,0.22852 3.7207,0.22852 2.7817,-0.1084 2.0347,-0.78223 1.2876,-1.4561 0.86133,-2.3291 0.75586,-3.4014 z" id="path4505" style="font-size:18px;font-variant:normal;font-weight:normal;writing-mode:lr-tb;fill:#000000;fill-opacity:1;fill-rule:nonzero;stroke:none;font-family:Helvetica;-inkscape-font-specification:Helvetica"/></g><g transform="matrix(1,0,0,-1,144.31,198)" id="text3009" style="fill:#000000"><path d="m 14.109,-6.0234 2.274,0.5742 c -0.477,1.8672 -1.334,3.291 -2.572,4.2715 -1.239,0.98043 -2.752,1.47067 -4.5415,1.47067 -1.8515,0 -3.3574,-0.37695 -4.5175,-1.13086 C 3.5918,-1.5918 2.709,-2.6836 2.1035,-4.1133 1.498,-5.543 1.1953,-7.0781 1.1953,-8.7187 c 0,-1.7893 0.3418,-3.3493 1.0254,-4.6813 0.6836,-1.332 1.6562,-2.344 2.918,-3.036 1.2617,-0.691 2.6504,-1.037 4.166,-1.037 1.7183,0 3.1643,0.438 4.3363,1.313 1.171,0.875 1.988,2.105 2.449,3.691 l -2.238,0.528 c -0.399,-1.25 -0.977,-2.161 -1.735,-2.731 -0.758,-0.57 -1.711,-0.855 -2.8592,-0.855 -1.3203,0 -2.4238,0.316 -3.3105,0.949 -0.8868,0.633 -1.5098,1.482 -1.8692,2.549 -0.3594,1.066 -0.539,2.1657 -0.539,3.2985 0,1.461 0.2128,2.7364 0.6386,3.8262 0.4258,1.0899 1.0879,1.9043 1.9864,2.4434 0.8984,0.539 1.871,0.8086 2.9179,0.8086 1.273,0 2.352,-0.3672 3.234,-1.1016 0.883,-0.7344 1.481,-1.8242 1.793,-3.2695 z" id="path4508" style="font-size:24px;font-variant:normal;font-weight:normal;writing-mode:lr-tb;fill:#000000;fill-opacity:1;fill-rule:nonzero;stroke:none;font-family:Helvetica;-inkscape-font-specification:Helvetica"/><path d="m 0.59922,-48.017 c 0,-2.852 0.76558,-5.084 2.29688,-6.697 1.5312,-1.614 3.5078,-2.42 5.9297,-2.42 1.5862,0 3.0152,0.379 4.2892,1.136 1.273,0.758 2.244,1.815 2.912,3.17 0.668,1.356 1.002,2.893 1.002,4.612 0,1.742 -0.352,3.3 -1.055,4.675 -0.703,1.375 -1.699,2.416 -2.988,3.123 -1.289,0.707 -2.68,1.061 -4.1719,1.061 -1.6172,0 -3.0625,-0.391 -4.336,-1.172 -1.2734,-0.781 -2.2383,-1.848 -2.8945,-3.199 -0.65626,-1.352 -0.98438,-2.781 -0.98438,-4.289 z m 2.34378,0.04 c 0,2.07 0.5566,3.701 1.6699,4.893 1.1133,1.191 2.5097,1.787 4.1894,1.787 1.7107,0 3.1187,-0.602 4.2247,-1.805 1.105,-1.203 1.658,-2.91 1.658,-5.121 0,-1.399 -0.236,-2.619 -0.709,-3.662 -0.473,-1.043 -1.164,-1.852 -2.074,-2.426 -0.91,-0.574 -1.9317,-0.861 -3.0645,-0.861 -1.6094,0 -2.9941,0.552 -4.1543,1.658 -1.1602,1.105 -1.7402,2.951 -1.7402,5.537 z" id="path4510" style="font-size:24px;font-variant:normal;font-weight:normal;writing-mode:lr-tb;fill:#000000;fill-opacity:1;fill-rule:nonzero;stroke:none;font-family:Helvetica;-inkscape-font-specification:Helvetica"/><path d="m 20.033,-39.65 0,-17.18 2.273,0 0,7.055 8.93,0 0,-7.055 2.273,0 0,17.18 -2.273,0 0,-8.098 -8.93,0 0,8.098 z" id="path4512" style="font-size:24px;font-variant:normal;font-weight:normal;writing-mode:lr-tb;fill:#000000;fill-opacity:1;fill-rule:nonzero;stroke:none;font-family:Helvetica;-inkscape-font-specification:Helvetica"/></g></g><path d="m 93.248,215.9 -1.7,-1 0,39.65 0.85,0.55 0.85,-0.5" id="path3015" style="fill:#000000;fill-opacity:1;fill-rule:nonzero;stroke:none"/><path d="m 118.1,201.55 -0.85,-1.5 -25.702,14.85 1.7,1" id="path3017" style="fill:#000000;fill-opacity:1;fill-rule:nonzero;stroke:none"/><path d="m 126.7,273.95 0,1 0.85,0.55 26.4,-11.85 -3.85,-6.65" id="path3019" style="fill:#000000;fill-opacity:1;fill-rule:nonzero;stroke:none"/><path d="m 93.248,254.6 -0.85,0.5 0.05,1 33.452,19.35 0.85,-0.5 0,-1" id="path3021" style="fill:#000000;fill-opacity:1;fill-rule:nonzero;stroke:none"/><path d="m 127.6,156.35 -1.7,-0.95 0,28.15 1.7,0" id="path3023" style="fill:#000000;fill-opacity:1;fill-rule:nonzero;stroke:none"/><path d="m 161.1,137 0,-0.95 -0.9,-0.5 -34.3,19.85 1.7,0.95" id="path3025" style="fill:#000000;fill-opacity:1;fill-rule:nonzero;stroke:none"/><path d="m 194.65,156.35 1.7,-0.95 -34.35,-19.85 -0.9,0.5 0,0.95" id="path3027" style="fill:#000000;fill-opacity:1;fill-rule:nonzero;stroke:none"/><path d="m 194.65,196.05 1.7,-1 0,-39.65 -1.7,0.95" id="path3029" style="fill:#000000;fill-opacity:1;fill-rule:nonzero;stroke:none"/><path d="m 168.8,206.55 3.85,6.6 1.35,-1 -3.6,-6.3" id="path3031" style="fill:#000000;fill-opacity:1;fill-rule:nonzero;stroke:none"/><path d="m 173,204.75 3.3,5.7 1.35,-1.05 -3.05,-5.3" id="path3033" style="fill:#000000;fill-opacity:1;fill-rule:nonzero;stroke:none"/><path d="m 177.2,202.95 2.75,4.75 1.35,-1.05 -2.5,-4.35" id="path3035" style="fill:#000000;fill-opacity:1;fill-rule:nonzero;stroke:none"/><path d="m 181.4,201.2 2.15,3.75 1.4,-1.05 -1.95,-3.4" id="path3037" style="fill:#000000;fill-opacity:1;fill-rule:nonzero;stroke:none"/><path d="m 185.6,199.4 1.6,2.8 1.4,-1.05 -1.4,-2.4" id="path3039" style="fill:#000000;fill-opacity:1;fill-rule:nonzero;stroke:none"/><path d="m 189.8,197.65 1.05,1.8 1.4,-1 -0.85,-1.5" id="path3041" style="fill:#000000;fill-opacity:1;fill-rule:nonzero;stroke:none"/><path d="m 229,215.9 1.7,-1 -34.35,-19.85 -1.7,1" id="path3043" style="fill:#000000;fill-opacity:1;fill-rule:nonzero;stroke:none"/><path d="m 229,254.6 0.85,0.5 0.85,-0.55 0,-39.65 -1.7,1" id="path3045" style="fill:#000000;fill-opacity:1;fill-rule:nonzero;stroke:none"/><path d="m 194.65,274.45 1.7,1 33.45,-19.35 0,-1 -0.85,-0.5" id="path3047" style="fill:#000000;fill-opacity:1;fill-rule:nonzero;stroke:none"/><path d="m 194.65,314.15 1.7,0.95 0,-39.65 -1.7,-1" id="path3049" style="fill:#000000;fill-opacity:1;fill-rule:nonzero;stroke:none"/><path d="m 161.1,333.5 0,1.95 35.25,-20.35 -1.7,-0.95" id="path3051" style="fill:#000000;fill-opacity:1;fill-rule:nonzero;stroke:none"/><path d="m 127.6,314.15 -0.85,0.45 0,1.05 34.3,19.8 0,-1.95" id="path3053" style="fill:#000000;fill-opacity:1;fill-rule:nonzero;stroke:none"/><path d="m 127.6,275.5 -0.85,-0.55 -0.85,0.5 0,38.6 0.85,0.55 0.85,-0.45" id="path3055" style="fill:#000000;fill-opacity:1;fill-rule:nonzero;stroke:none"/><g transform="translate(7.9982,7.9981)" id="g3057" style="fill:#000000"><g transform="matrix(1,0,0,-1,2.6,178.15)" id="text3059" style="fill:#000000"><path d="m 1.9219,0 0,-17.18 2.2734,0 0,7.055 8.9297,0 0,-7.055 2.273,0 0,17.18 -2.273,0 0,-8.0977 -8.9297,0 0,8.0977 z" id="path4488" style="font-size:24px;font-variant:normal;font-weight:normal;writing-mode:lr-tb;fill:#000000;fill-opacity:1;fill-rule:nonzero;stroke:none;font-family:Helvetica;-inkscape-font-specification:Helvetica"/></g><g transform="matrix(1,0,0,-1,19.928,173.65)" id="text3063" style="fill:#000000"><path d="M 0.74707,-3.375 2.4082,-3.5156 c 0.123,0.8086 0.4087,1.4165 0.8569,1.8237 0.4483,0.4072 0.9888,0.6108 1.6216,0.6108 0.7617,0 1.4063,-0.2871 1.9336,-0.8613 0.5273,-0.5742 0.791,-1.3359 0.791,-2.2851 0,-0.9024 -0.2534,-1.6143 -0.7602,-2.1358 -0.5069,-0.5215 -1.1704,-0.7822 -1.9907,-0.7822 -0.5098,0 -0.9698,0.1157 -1.3799,0.3472 -0.4102,0.2314 -0.7325,0.5317 -0.9668,0.9008 l -1.4854,-0.1933 1.2481,-6.6182 6.4072,0 0,1.512 -5.1416,0 -0.6943,3.4626 c 0.7734,-0.539 1.5849,-0.8086 2.4345,-0.8086 1.125,0 2.0742,0.3897 2.8477,1.169 0.7734,0.7793 1.1601,1.7812 1.1601,3.0058 0,1.1661 -0.3398,2.1739 -1.0195,3.0235 C 7.4443,-0.30176 6.3164,0.21973 4.8867,0.21973 3.7148,0.21973 2.7583,-0.1084 2.0171,-0.76465 1.2759,-1.4209 0.85254,-2.291 0.74707,-3.375 z" id="path4491" style="font-size:18px;font-variant:normal;font-weight:normal;writing-mode:lr-tb;fill:#000000;fill-opacity:1;fill-rule:nonzero;stroke:none;font-family:Helvetica;-inkscape-font-specification:Helvetica"/></g><g transform="matrix(1,0,0,-1,29.936,178.15)" id="text3067" style="fill:#000000"><path d="m 14.109,-6.0234 2.274,0.5742 c -0.477,1.8672 -1.334,3.291 -2.572,4.2715 -1.239,0.98043 -2.752,1.47067 -4.5415,1.47067 -1.8515,0 -3.3574,-0.37695 -4.5175,-1.13086 C 3.5918,-1.5918 2.709,-2.6836 2.1035,-4.1133 1.498,-5.543 1.1953,-7.0781 1.1953,-8.7187 c 0,-1.7893 0.3418,-3.3493 1.0254,-4.6813 0.6836,-1.332 1.6562,-2.344 2.918,-3.036 1.2617,-0.691 2.6504,-1.037 4.166,-1.037 1.7183,0 3.1643,0.438 4.3363,1.313 1.171,0.875 1.988,2.105 2.449,3.691 l -2.238,0.528 c -0.399,-1.25 -0.977,-2.161 -1.735,-2.731 -0.758,-0.57 -1.711,-0.855 -2.8592,-0.855 -1.3203,0 -2.4238,0.316 -3.3105,0.949 -0.8868,0.633 -1.5098,1.482 -1.8692,2.549 -0.3594,1.066 -0.539,2.1657 -0.539,3.2985 0,1.461 0.2128,2.7364 0.6386,3.8262 0.4258,1.0899 1.0879,1.9043 1.9864,2.4434 0.8984,0.539 1.871,0.8086 2.9179,0.8086 1.273,0 2.352,-0.3672 3.234,-1.1016 0.883,-0.7344 1.481,-1.8242 1.793,-3.2695 z" id="path4494" style="font-size:24px;font-variant:normal;font-weight:normal;writing-mode:lr-tb;fill:#000000;fill-opacity:1;fill-rule:nonzero;stroke:none;font-family:Helvetica;-inkscape-font-specification:Helvetica"/></g><g transform="matrix(1,0,0,-1,47.264,173.65)" id="text3071" style="fill:#000000"><path d="M 9.0615,-1.5205 9.0615,0 0.54492,0 C 0.5332,-0.38086 0.59473,-0.74707 0.72949,-1.0986 0.94629,-1.6787 1.2935,-2.25 1.771,-2.8125 2.2485,-3.375 2.9385,-4.0254 3.8408,-4.7637 5.2412,-5.9121 6.1875,-6.8218 6.6797,-7.4927 7.1719,-8.1636 7.418,-8.7978 7.418,-9.3955 c 0,-0.6265 -0.2242,-1.1555 -0.6724,-1.5865 -0.4482,-0.431 -1.0327,-0.646 -1.7534,-0.646 -0.7617,0 -1.3711,0.229 -1.8281,0.686 -0.4571,0.457 -0.6885,1.0895 -0.6944,1.8981 L 0.84375,-9.2109 C 0.95508,-10.424 1.374,-11.348 2.1006,-11.984 c 0.7265,-0.636 1.7021,-0.953 2.9267,-0.954 1.2364,0 2.2149,0.343 2.9356,1.029 0.7207,0.685 1.081,1.535 1.081,2.5486 0,0.5157 -0.1054,1.0225 -0.3164,1.5206 -0.2109,0.498 -0.561,1.0224 -1.0503,1.5732 C 7.188,-5.7158 6.375,-4.96 5.2383,-3.999 4.2891,-3.2021 3.6797,-2.6616 3.4102,-2.3774 3.1406,-2.0933 2.918,-1.8076 2.7422,-1.5205 z" id="path4497" style="font-size:18px;font-variant:normal;font-weight:normal;writing-mode:lr-tb;fill:#000000;fill-opacity:1;fill-rule:nonzero;stroke:none;font-family:Helvetica;-inkscape-font-specification:Helvetica"/></g></g><path d="m 64.698,195 -3.85,6.65 1.55,0.7 3.7,-6.35" id="path3075" style="fill:#000000;fill-opacity:1;fill-rule:nonzero;stroke:none"/><path d="m 68.548,197.75 -3.4,5.85 1.6,0.7 3.15,-5.55" id="path3077" style="fill:#000000;fill-opacity:1;fill-rule:nonzero;stroke:none"/><path d="m 72.348,200.5 -2.85,5 1.55,0.75 2.7,-4.75" id="path3079" style="fill:#000000;fill-opacity:1;fill-rule:nonzero;stroke:none"/><path d="m 76.198,203.25 -2.4,4.2 1.55,0.75 2.25,-3.95" id="path3081" style="fill:#000000;fill-opacity:1;fill-rule:nonzero;stroke:none"/><path d="m 80.048,206.05 -1.95,3.35 1.55,0.7 1.8,-3.05" id="path3083" style="fill:#000000;fill-opacity:1;fill-rule:nonzero;stroke:none"/><path d="m 83.898,208.8 -1.5,2.55 1.55,0.7 1.35,-2.25" id="path3085" style="fill:#000000;fill-opacity:1;fill-rule:nonzero;stroke:none"/><path d="m 87.748,211.55 -1.05,1.75 1.55,0.7 0.85,-1.45" id="path3087" style="fill:#000000;fill-opacity:1;fill-rule:nonzero;stroke:none"/><g transform="translate(7.9982,7.9981)" id="g3089" style="fill:#000000"><g transform="matrix(1,0,0,-1,9.875,227.4)" id="text3091" style="fill:#000000"><path d="m 1.9219,0 0,-17.18 2.2734,0 0,7.055 8.9297,0 0,-7.055 2.273,0 0,17.18 -2.273,0 0,-8.0977 -8.9297,0 0,8.0977 z" id="path4479" style="font-size:24px;font-variant:normal;font-weight:normal;writing-mode:lr-tb;fill:#000000;fill-opacity:1;fill-rule:nonzero;stroke:none;font-family:Helvetica;-inkscape-font-specification:Helvetica"/></g><g transform="matrix(1,0,0,-1,27.203,222.9)" id="text3095" style="fill:#000000"><path d="M 0.75586,-3.4014 2.3379,-3.6123 c 0.1816,0.8965 0.4907,1.5425 0.9272,1.938 0.4366,0.3955 0.9683,0.5932 1.5953,0.5932 0.7441,0 1.3725,-0.2578 1.8852,-0.7734 0.5127,-0.5156 0.769,-1.1543 0.769,-1.916 0,-0.7266 -0.2373,-1.3257 -0.7119,-1.7974 -0.4746,-0.4716 -1.0781,-0.7075 -1.8105,-0.7075 -0.2988,0 -0.6709,0.059 -1.1162,0.1758 l 0.1758,-1.3887 c 0.1054,0.012 0.1904,0.018 0.2548,0.018 0.6739,0 1.2803,-0.1758 1.8194,-0.5273 0.539,-0.3516 0.8086,-0.8936 0.8086,-1.626 0,-0.5804 -0.1963,-1.0614 -0.5889,-1.4414 -0.3926,-0.381 -0.8994,-0.572 -1.5205,-0.572 -0.6152,0 -1.1279,0.194 -1.5381,0.58 -0.4101,0.387 -0.6738,0.967 -0.791,1.741 L 0.91406,-9.5977 C 1.1074,-10.658 1.5469,-11.48 2.2324,-12.063 c 0.6856,-0.583 1.5381,-0.874 2.5576,-0.875 0.7032,0 1.3506,0.151 1.9424,0.453 0.5918,0.302 1.0444,0.714 1.3579,1.235 0.3135,0.521 0.4702,1.075 0.4702,1.6611 0,0.5567 -0.1494,1.0635 -0.4482,1.5205 -0.2988,0.4571 -0.7412,0.8204 -1.3271,1.0899 0.7617,0.1758 1.3535,0.5405 1.7753,1.0942 0.4219,0.5537 0.6329,1.2466 0.6329,2.0786 0,1.125 -0.4102,2.0787 -1.2305,2.86088 C 7.1426,-0.1626 6.1055,0.22852 4.8516,0.22852 3.7207,0.22852 2.7817,-0.1084 2.0347,-0.78223 1.2876,-1.4561 0.86133,-2.3291 0.75586,-3.4014 z" id="path4482" style="font-size:18px;font-variant:normal;font-weight:normal;writing-mode:lr-tb;fill:#000000;fill-opacity:1;fill-rule:nonzero;stroke:none;font-family:Helvetica;-inkscape-font-specification:Helvetica"/></g><g transform="matrix(1,0,0,-1,37.211,227.4)" id="text3099" style="fill:#000000"><path d="m 14.109,-6.0234 2.274,0.5742 c -0.477,1.8672 -1.334,3.291 -2.572,4.2715 -1.239,0.98043 -2.752,1.47067 -4.5415,1.47067 -1.8515,0 -3.3574,-0.37695 -4.5175,-1.13086 C 3.5918,-1.5918 2.709,-2.6836 2.1035,-4.1133 1.498,-5.543 1.1953,-7.0781 1.1953,-8.7187 c 0,-1.7893 0.3418,-3.3493 1.0254,-4.6813 0.6836,-1.332 1.6562,-2.344 2.918,-3.036 1.2617,-0.691 2.6504,-1.037 4.166,-1.037 1.7183,0 3.1643,0.438 4.3363,1.313 1.171,0.875 1.988,2.105 2.449,3.691 l -2.238,0.528 c -0.399,-1.25 -0.977,-2.161 -1.735,-2.731 -0.758,-0.57 -1.711,-0.855 -2.8592,-0.855 -1.3203,0 -2.4238,0.316 -3.3105,0.949 -0.8868,0.633 -1.5098,1.482 -1.8692,2.549 -0.3594,1.066 -0.539,2.1657 -0.539,3.2985 0,1.461 0.2128,2.7364 0.6386,3.8262 0.4258,1.0899 1.0879,1.9043 1.9864,2.4434 0.8984,0.539 1.871,0.8086 2.9179,0.8086 1.273,0 2.352,-0.3672 3.234,-1.1016 0.883,-0.7344 1.481,-1.8242 1.793,-3.2695 z" id="path4485" style="font-size:24px;font-variant:normal;font-weight:normal;writing-mode:lr-tb;fill:#000000;fill-opacity:1;fill-rule:nonzero;stroke:none;font-family:Helvetica;-inkscape-font-specification:Helvetica"/></g></g><path d="m 64.698,243.7 -2,7.4 1.7,0.25 1.85,-7" id="path3103" style="fill:#000000;fill-opacity:1;fill-rule:nonzero;stroke:none"/><path d="m 69.098,245.45 -1.65,6.35 1.7,0.25 1.55,-5.95" id="path3105" style="fill:#000000;fill-opacity:1;fill-rule:nonzero;stroke:none"/><path d="m 73.548,247.25 -1.4,5.25 1.7,0.25 1.3,-4.9" id="path3107" style="fill:#000000;fill-opacity:1;fill-rule:nonzero;stroke:none"/><path d="m 77.998,249 -1.1,4.2 1.7,0.25 1,-3.8" id="path3109" style="fill:#000000;fill-opacity:1;fill-rule:nonzero;stroke:none"/><path d="m 82.448,250.75 -0.8,3.1 1.65,0.25 0.75,-2.7" id="path3111" style="fill:#000000;fill-opacity:1;fill-rule:nonzero;stroke:none"/><path d="m 86.898,252.55 -0.55,2 1.7,0.25 0.45,-1.65" id="path3113" style="fill:#000000;fill-opacity:1;fill-rule:nonzero;stroke:none"/><g transform="translate(7.9982,7.9981)" id="g3115" style="fill:#000000"><g transform="matrix(1,0,0,-1,212.45,118.65)" id="text3117" style="fill:#000000"><path d="m 1.1602,-8.3672 c 0,-2.8518 0.7656,-5.0838 2.2968,-6.6968 1.5313,-1.614 3.5078,-2.42 5.9297,-2.42 1.5863,0 3.0153,0.379 4.2893,1.136 1.273,0.758 2.244,1.815 2.912,3.17 0.668,1.356 1.002,2.893 1.002,4.6116 0,1.7422 -0.352,3.3008 -1.055,4.6758 -0.703,1.375 -1.699,2.416 -2.988,3.12302 -1.289,0.70703 -2.68,1.06055 -4.172,1.06055 -1.6172,0 -3.0625,-0.39063 -4.3359,-1.17188 C 3.7656,-1.6602 2.8008,-2.7266 2.1445,-4.0781 1.4883,-5.4297 1.1602,-6.8594 1.1602,-8.3672 z m 2.3437,0.035 c 0,2.0703 0.5566,3.7011 1.6699,4.8925 1.1133,1.1915 2.5098,1.7872 4.1895,1.7872 1.7107,0 3.1187,-0.6016 4.2247,-1.8047 1.105,-1.2032 1.658,-2.9102 1.658,-5.1211 0,-1.3985 -0.236,-2.6187 -0.709,-3.6617 -0.473,-1.043 -1.164,-1.852 -2.074,-2.426 -0.91,-0.574 -1.932,-0.861 -3.0646,-0.861 -1.6093,0 -2.9941,0.552 -4.1543,1.658 -1.1601,1.105 -1.7402,2.951 -1.7402,5.5368 z" id="path4476" style="font-size:24px;font-variant:normal;font-weight:normal;writing-mode:lr-tb;fill:#000000;fill-opacity:1;fill-rule:nonzero;stroke:none;font-family:Helvetica;-inkscape-font-specification:Helvetica"/></g></g><path d="m 222.7,144.6 -3.85,-6.65 -1.35,1.05 3.6,6.25" id="path3121" style="fill:#000000;fill-opacity:1;fill-rule:nonzero;stroke:none"/><path d="m 218.4,146.45 -3.3,-5.7 -1.35,1.05 3.05,5.3" id="path3123" style="fill:#000000;fill-opacity:1;fill-rule:nonzero;stroke:none"/><path d="m 214.1,148.3 -2.75,-4.75 -1.35,1.05 2.5,4.35" id="path3125" style="fill:#000000;fill-opacity:1;fill-rule:nonzero;stroke:none"/><path d="m 209.8,150.15 -2.2,-3.75 -1.35,1 1.95,3.4" id="path3127" style="fill:#000000;fill-opacity:1;fill-rule:nonzero;stroke:none"/><path d="m 205.45,151.95 -1.6,-2.75 -1.35,1 1.4,2.45" id="path3129" style="fill:#000000;fill-opacity:1;fill-rule:nonzero;stroke:none"/><path d="m 201.15,153.8 -1.05,-1.8 -1.35,1 0.85,1.5" id="path3131" style="fill:#000000;fill-opacity:1;fill-rule:nonzero;stroke:none"/><g transform="translate(7.9982,7.9981)" id="g3133" style="fill:#000000"><g transform="matrix(1,0,0,-1,240.65,171.3)" id="text3135" style="fill:#000000"><path d="m 1.1602,-8.3672 c 0,-2.8518 0.7656,-5.0838 2.2968,-6.6968 1.5313,-1.614 3.5078,-2.42 5.9297,-2.42 1.5863,0 3.0153,0.379 4.2893,1.136 1.273,0.758 2.244,1.815 2.912,3.17 0.668,1.356 1.002,2.893 1.002,4.6116 0,1.7422 -0.352,3.3008 -1.055,4.6758 -0.703,1.375 -1.699,2.416 -2.988,3.12302 -1.289,0.70703 -2.68,1.06055 -4.172,1.06055 -1.6172,0 -3.0625,-0.39063 -4.3359,-1.17188 C 3.7656,-1.6602 2.8008,-2.7266 2.1445,-4.0781 1.4883,-5.4297 1.1602,-6.8594 1.1602,-8.3672 z m 2.3437,0.035 c 0,2.0703 0.5566,3.7011 1.6699,4.8925 1.1133,1.1915 2.5098,1.7872 4.1895,1.7872 1.7107,0 3.1187,-0.6016 4.2247,-1.8047 1.105,-1.2032 1.658,-2.9102 1.658,-5.1211 0,-1.3985 -0.236,-2.6187 -0.709,-3.6617 -0.473,-1.043 -1.164,-1.852 -2.074,-2.426 -0.91,-0.574 -1.932,-0.861 -3.0646,-0.861 -1.6093,0 -2.9941,0.552 -4.1543,1.658 -1.1601,1.105 -1.7402,2.951 -1.7402,5.5368 z" id="path4473" style="font-size:24px;font-variant:normal;font-weight:normal;writing-mode:lr-tb;fill:#000000;fill-opacity:1;fill-rule:nonzero;stroke:none;font-family:Helvetica;-inkscape-font-specification:Helvetica"/></g></g><path d="m 253.05,198.75 -5.3,-5.6 -1.05,1.35 4.95,5.25" id="path3139" style="fill:#000000;fill-opacity:1;fill-rule:nonzero;stroke:none"/><path d="m 249.4,201.4 -4.5,-4.75 -1.1,1.3 4.25,4.45" id="path3141" style="fill:#000000;fill-opacity:1;fill-rule:nonzero;stroke:none"/><path d="m 245.8,204.05 -3.75,-3.95 -1.1,1.35 3.45,3.65" id="path3143" style="fill:#000000;fill-opacity:1;fill-rule:nonzero;stroke:none"/><path d="m 242.15,206.75 -2.95,-3.15 -1.1,1.3 2.7,2.85" id="path3145" style="fill:#000000;fill-opacity:1;fill-rule:nonzero;stroke:none"/><path d="m 238.55,209.4 -2.25,-2.35 -1.05,1.35 1.9,2.05" id="path3147" style="fill:#000000;fill-opacity:1;fill-rule:nonzero;stroke:none"/><path d="m 234.9,212.1 -1.45,-1.55 -1.1,1.3 1.2,1.25" id="path3149" style="fill:#000000;fill-opacity:1;fill-rule:nonzero;stroke:none"/><g transform="translate(7.9982,7.9981)" id="g3151" style="fill:#000000"><g transform="matrix(1,0,0,-1,251.4,227.4)" id="text3153" style="fill:#000000"><path d="m 14.109,-6.0234 2.274,0.5742 c -0.477,1.8672 -1.334,3.291 -2.572,4.2715 -1.239,0.98043 -2.752,1.47067 -4.5415,1.47067 -1.8515,0 -3.3574,-0.37695 -4.5175,-1.13086 C 3.5918,-1.5918 2.709,-2.6836 2.1035,-4.1133 1.498,-5.543 1.1953,-7.0781 1.1953,-8.7187 c 0,-1.7893 0.3418,-3.3493 1.0254,-4.6813 0.6836,-1.332 1.6562,-2.344 2.918,-3.036 1.2617,-0.691 2.6504,-1.037 4.166,-1.037 1.7183,0 3.1643,0.438 4.3363,1.313 1.171,0.875 1.988,2.105 2.449,3.691 l -2.238,0.528 c -0.399,-1.25 -0.977,-2.161 -1.735,-2.731 -0.758,-0.57 -1.711,-0.855 -2.8592,-0.855 -1.3203,0 -2.4238,0.316 -3.3105,0.949 -0.8868,0.633 -1.5098,1.482 -1.8692,2.549 -0.3594,1.066 -0.539,2.1657 -0.539,3.2985 0,1.461 0.2128,2.7364 0.6386,3.8262 0.4258,1.0899 1.0879,1.9043 1.9864,2.4434 0.8984,0.539 1.871,0.8086 2.9179,0.8086 1.273,0 2.352,-0.3672 3.234,-1.1016 0.883,-0.7344 1.481,-1.8242 1.793,-3.2695 z" id="path4465" style="font-size:24px;font-variant:normal;font-weight:normal;writing-mode:lr-tb;fill:#000000;fill-opacity:1;fill-rule:nonzero;stroke:none;font-family:Helvetica;-inkscape-font-specification:Helvetica"/><path d="m 19.25,0 0,-17.18 2.273,0 0,7.055 8.93,0 0,-7.055 2.273,0 0,17.18 -2.273,0 0,-8.0977 -8.93,0 0,8.0977 z" id="path4467" style="font-size:24px;font-variant:normal;font-weight:normal;writing-mode:lr-tb;fill:#000000;fill-opacity:1;fill-rule:nonzero;stroke:none;font-family:Helvetica;-inkscape-font-specification:Helvetica"/></g><g transform="matrix(1,0,0,-1,286.06,222.9)" id="text3157" style="fill:#000000"><path d="M 0.75586,-3.4014 2.3379,-3.6123 c 0.1816,0.8965 0.4907,1.5425 0.9272,1.938 0.4366,0.3955 0.9683,0.5932 1.5953,0.5932 0.7441,0 1.3725,-0.2578 1.8852,-0.7734 0.5127,-0.5156 0.769,-1.1543 0.769,-1.916 0,-0.7266 -0.2373,-1.3257 -0.7119,-1.7974 -0.4746,-0.4716 -1.0781,-0.7075 -1.8105,-0.7075 -0.2988,0 -0.6709,0.059 -1.1162,0.1758 l 0.1758,-1.3887 c 0.1054,0.012 0.1904,0.018 0.2548,0.018 0.6739,0 1.2803,-0.1758 1.8194,-0.5273 0.539,-0.3516 0.8086,-0.8936 0.8086,-1.626 0,-0.5804 -0.1963,-1.0614 -0.5889,-1.4414 -0.3926,-0.381 -0.8994,-0.572 -1.5205,-0.572 -0.6152,0 -1.1279,0.194 -1.5381,0.58 -0.4101,0.387 -0.6738,0.967 -0.791,1.741 L 0.91406,-9.5977 C 1.1074,-10.658 1.5469,-11.48 2.2324,-12.063 c 0.6856,-0.583 1.5381,-0.874 2.5576,-0.875 0.7032,0 1.3506,0.151 1.9424,0.453 0.5918,0.302 1.0444,0.714 1.3579,1.235 0.3135,0.521 0.4702,1.075 0.4702,1.6611 0,0.5567 -0.1494,1.0635 -0.4482,1.5205 -0.2988,0.4571 -0.7412,0.8204 -1.3271,1.0899 0.7617,0.1758 1.3535,0.5405 1.7753,1.0942 0.4219,0.5537 0.6329,1.2466 0.6329,2.0786 0,1.125 -0.4102,2.0787 -1.2305,2.86088 C 7.1426,-0.1626 6.1055,0.22852 4.8516,0.22852 3.7207,0.22852 2.7817,-0.1084 2.0347,-0.78223 1.2876,-1.4561 0.86133,-2.3291 0.75586,-3.4014 z" id="path4470" style="font-size:18px;font-variant:normal;font-weight:normal;writing-mode:lr-tb;fill:#000000;fill-opacity:1;fill-rule:nonzero;stroke:none;font-family:Helvetica;-inkscape-font-specification:Helvetica"/></g></g><path d="m 259.65,251.1 -2,-7.4 -1.6,0.6 1.9,7" id="path3161" style="fill:#000000;fill-opacity:1;fill-rule:nonzero;stroke:none"/><path d="m 254.9,251.75 -1.7,-6.3 -1.6,0.65 1.6,5.9" id="path3163" style="fill:#000000;fill-opacity:1;fill-rule:nonzero;stroke:none"/><path d="m 250.15,252.45 -1.45,-5.2 -1.55,0.6 1.3,4.85" id="path3165" style="fill:#000000;fill-opacity:1;fill-rule:nonzero;stroke:none"/><path d="m 245.4,253.15 -1.15,-4.15 -1.6,0.65 1.05,3.75" id="path3167" style="fill:#000000;fill-opacity:1;fill-rule:nonzero;stroke:none"/><path d="m 240.65,253.85 -0.85,-3.1 -1.6,0.65 0.75,2.7" id="path3169" style="fill:#000000;fill-opacity:1;fill-rule:nonzero;stroke:none"/><path d="m 235.9,254.55 -0.55,-2 -1.6,0.6 0.45,1.65" id="path3171" style="fill:#000000;fill-opacity:1;fill-rule:nonzero;stroke:none"/><g transform="translate(7.9982,7.9981)" id="g3173" style="fill:#000000"><g transform="matrix(1,0,0,-1,213.05,317)" id="text3175" style="fill:#000000"><path d="m 14.109,-6.0234 2.274,0.5742 c -0.477,1.8672 -1.334,3.291 -2.572,4.2715 -1.239,0.98043 -2.752,1.47067 -4.5415,1.47067 -1.8515,0 -3.3574,-0.37695 -4.5175,-1.13086 C 3.5918,-1.5918 2.709,-2.6836 2.1035,-4.1133 1.498,-5.543 1.1953,-7.0781 1.1953,-8.7187 c 0,-1.7893 0.3418,-3.3493 1.0254,-4.6813 0.6836,-1.332 1.6562,-2.344 2.918,-3.036 1.2617,-0.691 2.6504,-1.037 4.166,-1.037 1.7183,0 3.1643,0.438 4.3363,1.313 1.171,0.875 1.988,2.105 2.449,3.691 l -2.238,0.528 c -0.399,-1.25 -0.977,-2.161 -1.735,-2.731 -0.758,-0.57 -1.711,-0.855 -2.8592,-0.855 -1.3203,0 -2.4238,0.316 -3.3105,0.949 -0.8868,0.633 -1.5098,1.482 -1.8692,2.549 -0.3594,1.066 -0.539,2.1657 -0.539,3.2985 0,1.461 0.2128,2.7364 0.6386,3.8262 0.4258,1.0899 1.0879,1.9043 1.9864,2.4434 0.8984,0.539 1.871,0.8086 2.9179,0.8086 1.273,0 2.352,-0.3672 3.234,-1.1016 0.883,-0.7344 1.481,-1.8242 1.793,-3.2695 z" id="path4457" style="font-size:24px;font-variant:normal;font-weight:normal;writing-mode:lr-tb;fill:#000000;fill-opacity:1;fill-rule:nonzero;stroke:none;font-family:Helvetica;-inkscape-font-specification:Helvetica"/><path d="m 19.25,0 0,-17.18 2.273,0 0,7.055 8.93,0 0,-7.055 2.273,0 0,17.18 -2.273,0 0,-8.0977 -8.93,0 0,8.0977 z" id="path4459" style="font-size:24px;font-variant:normal;font-weight:normal;writing-mode:lr-tb;fill:#000000;fill-opacity:1;fill-rule:nonzero;stroke:none;font-family:Helvetica;-inkscape-font-specification:Helvetica"/></g><g transform="matrix(1,0,0,-1,247.71,312.5)" id="text3179" style="fill:#000000"><path d="M 0.75586,-3.4014 2.3379,-3.6123 c 0.1816,0.8965 0.4907,1.5425 0.9272,1.938 0.4366,0.3955 0.9683,0.5932 1.5953,0.5932 0.7441,0 1.3725,-0.2578 1.8852,-0.7734 0.5127,-0.5156 0.769,-1.1543 0.769,-1.916 0,-0.7266 -0.2373,-1.3257 -0.7119,-1.7974 -0.4746,-0.4716 -1.0781,-0.7075 -1.8105,-0.7075 -0.2988,0 -0.6709,0.059 -1.1162,0.1758 l 0.1758,-1.3887 c 0.1054,0.012 0.1904,0.018 0.2548,0.018 0.6739,0 1.2803,-0.1758 1.8194,-0.5273 0.539,-0.3516 0.8086,-0.8936 0.8086,-1.626 0,-0.5804 -0.1963,-1.0614 -0.5889,-1.4414 -0.3926,-0.381 -0.8994,-0.572 -1.5205,-0.572 -0.6152,0 -1.1279,0.194 -1.5381,0.58 -0.4101,0.387 -0.6738,0.967 -0.791,1.741 L 0.91406,-9.5977 C 1.1074,-10.658 1.5469,-11.48 2.2324,-12.063 c 0.6856,-0.583 1.5381,-0.874 2.5576,-0.875 0.7032,0 1.3506,0.151 1.9424,0.453 0.5918,0.302 1.0444,0.714 1.3579,1.235 0.3135,0.521 0.4702,1.075 0.4702,1.6611 0,0.5567 -0.1494,1.0635 -0.4482,1.5205 -0.2988,0.4571 -0.7412,0.8204 -1.3271,1.0899 0.7617,0.1758 1.3535,0.5405 1.7753,1.0942 0.4219,0.5537 0.6329,1.2466 0.6329,2.0786 0,1.125 -0.4102,2.0787 -1.2305,2.86088 C 7.1426,-0.1626 6.1055,0.22852 4.8516,0.22852 3.7207,0.22852 2.7817,-0.1084 2.0347,-0.78223 1.2876,-1.4561 0.86133,-2.3291 0.75586,-3.4014 z" id="path4462" style="font-size:18px;font-variant:normal;font-weight:normal;writing-mode:lr-tb;fill:#000000;fill-opacity:1;fill-rule:nonzero;stroke:none;font-family:Helvetica;-inkscape-font-specification:Helvetica"/></g></g><path d="m 218.55,332.35 3.8,-6.65 -1.55,-0.65 -3.65,6.25" id="path3183" style="fill:#000000;fill-opacity:1;fill-rule:nonzero;stroke:none"/><path d="m 214.85,329.6 3.25,-5.7 -1.55,-0.65 -3.05,5.3" id="path3185" style="fill:#000000;fill-opacity:1;fill-rule:nonzero;stroke:none"/><path d="m 211.15,326.8 2.75,-4.7 -1.6,-0.65 -2.5,4.35" id="path3187" style="fill:#000000;fill-opacity:1;fill-rule:nonzero;stroke:none"/><path d="m 207.5,324.05 2.15,-3.75 -1.6,-0.7 -1.95,3.4" id="path3189" style="fill:#000000;fill-opacity:1;fill-rule:nonzero;stroke:none"/><path d="m 203.8,321.3 1.6,-2.8 -1.55,-0.7 -1.4,2.45" id="path3191" style="fill:#000000;fill-opacity:1;fill-rule:nonzero;stroke:none"/><path d="m 200.1,318.5 1.05,-1.8 -1.55,-0.7 -0.85,1.5" id="path3193" style="fill:#000000;fill-opacity:1;fill-rule:nonzero;stroke:none"/><g transform="translate(7.9982,7.9981)" id="g3195" style="fill:#000000"><g transform="matrix(1,0,0,-1,48.275,317)" id="text3197" style="fill:#000000"><path d="m 1.9219,0 0,-17.18 2.2734,0 0,7.055 8.9297,0 0,-7.055 2.273,0 0,17.18 -2.273,0 0,-8.0977 -8.9297,0 0,8.0977 z" id="path4448" style="font-size:24px;font-variant:normal;font-weight:normal;writing-mode:lr-tb;fill:#000000;fill-opacity:1;fill-rule:nonzero;stroke:none;font-family:Helvetica;-inkscape-font-specification:Helvetica"/></g><g transform="matrix(1,0,0,-1,65.603,312.5)" id="text3201" style="fill:#000000"><path d="M 0.75586,-3.4014 2.3379,-3.6123 c 0.1816,0.8965 0.4907,1.5425 0.9272,1.938 0.4366,0.3955 0.9683,0.5932 1.5953,0.5932 0.7441,0 1.3725,-0.2578 1.8852,-0.7734 0.5127,-0.5156 0.769,-1.1543 0.769,-1.916 0,-0.7266 -0.2373,-1.3257 -0.7119,-1.7974 -0.4746,-0.4716 -1.0781,-0.7075 -1.8105,-0.7075 -0.2988,0 -0.6709,0.059 -1.1162,0.1758 l 0.1758,-1.3887 c 0.1054,0.012 0.1904,0.018 0.2548,0.018 0.6739,0 1.2803,-0.1758 1.8194,-0.5273 0.539,-0.3516 0.8086,-0.8936 0.8086,-1.626 0,-0.5804 -0.1963,-1.0614 -0.5889,-1.4414 -0.3926,-0.381 -0.8994,-0.572 -1.5205,-0.572 -0.6152,0 -1.1279,0.194 -1.5381,0.58 -0.4101,0.387 -0.6738,0.967 -0.791,1.741 L 0.91406,-9.5977 C 1.1074,-10.658 1.5469,-11.48 2.2324,-12.063 c 0.6856,-0.583 1.5381,-0.874 2.5576,-0.875 0.7032,0 1.3506,0.151 1.9424,0.453 0.5918,0.302 1.0444,0.714 1.3579,1.235 0.3135,0.521 0.4702,1.075 0.4702,1.6611 0,0.5567 -0.1494,1.0635 -0.4482,1.5205 -0.2988,0.4571 -0.7412,0.8204 -1.3271,1.0899 0.7617,0.1758 1.3535,0.5405 1.7753,1.0942 0.4219,0.5537 0.6329,1.2466 0.6329,2.0786 0,1.125 -0.4102,2.0787 -1.2305,2.86088 C 7.1426,-0.1626 6.1055,0.22852 4.8516,0.22852 3.7207,0.22852 2.7817,-0.1084 2.0347,-0.78223 1.2876,-1.4561 0.86133,-2.3291 0.75586,-3.4014 z" id="path4451" style="font-size:18px;font-variant:normal;font-weight:normal;writing-mode:lr-tb;fill:#000000;fill-opacity:1;fill-rule:nonzero;stroke:none;font-family:Helvetica;-inkscape-font-specification:Helvetica"/></g><g transform="matrix(1,0,0,-1,75.611,317)" id="text3205" style="fill:#000000"><path d="m 14.109,-6.0234 2.274,0.5742 c -0.477,1.8672 -1.334,3.291 -2.572,4.2715 -1.239,0.98043 -2.752,1.47067 -4.5415,1.47067 -1.8515,0 -3.3574,-0.37695 -4.5175,-1.13086 C 3.5918,-1.5918 2.709,-2.6836 2.1035,-4.1133 1.498,-5.543 1.1953,-7.0781 1.1953,-8.7187 c 0,-1.7893 0.3418,-3.3493 1.0254,-4.6813 0.6836,-1.332 1.6562,-2.344 2.918,-3.036 1.2617,-0.691 2.6504,-1.037 4.166,-1.037 1.7183,0 3.1643,0.438 4.3363,1.313 1.171,0.875 1.988,2.105 2.449,3.691 l -2.238,0.528 c -0.399,-1.25 -0.977,-2.161 -1.735,-2.731 -0.758,-0.57 -1.711,-0.855 -2.8592,-0.855 -1.3203,0 -2.4238,0.316 -3.3105,0.949 -0.8868,0.633 -1.5098,1.482 -1.8692,2.549 -0.3594,1.066 -0.539,2.1657 -0.539,3.2985 0,1.461 0.2128,2.7364 0.6386,3.8262 0.4258,1.0899 1.0879,1.9043 1.9864,2.4434 0.8984,0.539 1.871,0.8086 2.9179,0.8086 1.273,0 2.352,-0.3672 3.234,-1.1016 0.883,-0.7344 1.481,-1.8242 1.793,-3.2695 z" id="path4454" style="font-size:24px;font-variant:normal;font-weight:normal;writing-mode:lr-tb;fill:#000000;fill-opacity:1;fill-rule:nonzero;stroke:none;font-family:Helvetica;-inkscape-font-specification:Helvetica"/></g></g><path d="m 100.1,325.6 3.85,6.6 22.85,-16.55 0,-1.05 -0.85,-0.55" id="path3209" style="fill:#000000;fill-opacity:1;fill-rule:nonzero;stroke:none"/><g transform="translate(7.9982,7.9981)" id="g3211" style="fill:#000000"><g transform="matrix(1,0,0,-1,23.45,257.5)" id="text3213" style="fill:#000000"><path d="m 1.9219,0 0,-17.18 2.2734,0 0,7.055 8.9297,0 0,-7.055 2.273,0 0,17.18 -2.273,0 0,-8.0977 -8.9297,0 0,8.0977 z" id="path4443" style="font-size:24px;font-variant:normal;font-weight:normal;writing-mode:lr-tb;fill:#000000;fill-opacity:1;fill-rule:nonzero;stroke:none;font-family:Helvetica;-inkscape-font-specification:Helvetica"/><path d="m 18.488,-8.3672 c 0,-2.8518 0.766,-5.0838 2.297,-6.6968 1.531,-1.614 3.508,-2.42 5.93,-2.42 1.586,0 3.015,0.379 4.289,1.136 1.273,0.758 2.244,1.815 2.912,3.17 0.668,1.356 1.002,2.893 1.002,4.6116 0,1.7422 -0.352,3.3008 -1.055,4.6758 -0.703,1.375 -1.699,2.416 -2.988,3.12302 -1.289,0.70703 -2.68,1.06055 -4.172,1.06055 -1.617,0 -3.063,-0.39063 -4.336,-1.17188 C 21.094,-1.6602 20.129,-2.7266 19.473,-4.0781 18.816,-5.4297 18.488,-6.8594 18.488,-8.3672 z m 2.344,0.035 c 0,2.0703 0.557,3.7011 1.67,4.8925 1.113,1.1915 2.51,1.7872 4.189,1.7872 1.711,0 3.119,-0.6016 4.225,-1.8047 1.105,-1.2032 1.658,-2.9102 1.658,-5.1211 0,-1.3985 -0.236,-2.6187 -0.709,-3.6617 -0.473,-1.043 -1.164,-1.852 -2.074,-2.426 -0.91,-0.574 -1.932,-0.861 -3.065,-0.861 -1.609,0 -2.994,0.552 -4.154,1.658 -1.16,1.105 -1.74,2.951 -1.74,5.5368 z" id="path4445" style="font-size:24px;font-variant:normal;font-weight:normal;writing-mode:lr-tb;fill:#000000;fill-opacity:1;fill-rule:nonzero;stroke:none;font-family:Helvetica;-inkscape-font-specification:Helvetica"/></g></g><path d="m 65.898,265.95 3.85,6.65 22.7,-16.5 -0.05,-1 -0.85,-0.55" id="path3217" style="fill:#000000;fill-opacity:1;fill-rule:nonzero;stroke:none"/><g transform="translate(7.9982,7.9981)" id="g3219" style="fill:#000000"><g transform="matrix(1,0,0,-1,144.3,78.95)" id="text3221" style="fill:#000000"><path d="m 14.109,-6.0234 2.274,0.5742 c -0.477,1.8672 -1.334,3.291 -2.572,4.2715 -1.239,0.98043 -2.752,1.47067 -4.5415,1.47067 -1.8515,0 -3.3574,-0.37695 -4.5175,-1.13086 C 3.5918,-1.5918 2.709,-2.6836 2.1035,-4.1133 1.498,-5.543 1.1953,-7.0781 1.1953,-8.7187 c 0,-1.7893 0.3418,-3.3493 1.0254,-4.6813 0.6836,-1.332 1.6562,-2.344 2.918,-3.036 1.2617,-0.691 2.6504,-1.037 4.166,-1.037 1.7183,0 3.1643,0.438 4.3363,1.313 1.171,0.875 1.988,2.105 2.449,3.691 l -2.238,0.528 c -0.399,-1.25 -0.977,-2.161 -1.735,-2.731 -0.758,-0.57 -1.711,-0.855 -2.8592,-0.855 -1.3203,0 -2.4238,0.316 -3.3105,0.949 -0.8868,0.633 -1.5098,1.482 -1.8692,2.549 -0.3594,1.066 -0.539,2.1657 -0.539,3.2985 0,1.461 0.2128,2.7364 0.6386,3.8262 0.4258,1.0899 1.0879,1.9043 1.9864,2.4434 0.8984,0.539 1.871,0.8086 2.9179,0.8086 1.273,0 2.352,-0.3672 3.234,-1.1016 0.883,-0.7344 1.481,-1.8242 1.793,-3.2695 z" id="path4435" style="font-size:24px;font-variant:normal;font-weight:normal;writing-mode:lr-tb;fill:#000000;fill-opacity:1;fill-rule:nonzero;stroke:none;font-family:Helvetica;-inkscape-font-specification:Helvetica"/><path d="m 19.25,0 0,-17.18 2.273,0 0,7.055 8.93,0 0,-7.055 2.273,0 0,17.18 -2.273,0 0,-8.0977 -8.93,0 0,8.0977 z" id="path4437" style="font-size:24px;font-variant:normal;font-weight:normal;writing-mode:lr-tb;fill:#000000;fill-opacity:1;fill-rule:nonzero;stroke:none;font-family:Helvetica;-inkscape-font-specification:Helvetica"/></g><g transform="matrix(1,0,0,-1,178.96,74.45)" id="text3225" style="fill:#000000"><path d="M 0.75586,-3.4014 2.3379,-3.6123 c 0.1816,0.8965 0.4907,1.5425 0.9272,1.938 0.4366,0.3955 0.9683,0.5932 1.5953,0.5932 0.7441,0 1.3725,-0.2578 1.8852,-0.7734 0.5127,-0.5156 0.769,-1.1543 0.769,-1.916 0,-0.7266 -0.2373,-1.3257 -0.7119,-1.7974 -0.4746,-0.4716 -1.0781,-0.7075 -1.8105,-0.7075 -0.2988,0 -0.6709,0.059 -1.1162,0.1758 l 0.1758,-1.3887 c 0.1054,0.012 0.1904,0.018 0.2548,0.018 0.6739,0 1.2803,-0.1758 1.8194,-0.5273 0.539,-0.3516 0.8086,-0.8936 0.8086,-1.626 0,-0.5804 -0.1963,-1.0614 -0.5889,-1.4414 -0.3926,-0.381 -0.8994,-0.572 -1.5205,-0.572 -0.6152,0 -1.1279,0.194 -1.5381,0.58 -0.4101,0.387 -0.6738,0.967 -0.791,1.741 L 0.91406,-9.5977 C 1.1074,-10.658 1.5469,-11.48 2.2324,-12.063 c 0.6856,-0.583 1.5381,-0.874 2.5576,-0.875 0.7032,0 1.3506,0.151 1.9424,0.453 0.5918,0.302 1.0444,0.714 1.3579,1.235 0.3135,0.521 0.4702,1.075 0.4702,1.6611 0,0.5567 -0.1494,1.0635 -0.4482,1.5205 -0.2988,0.4571 -0.7412,0.8204 -1.3271,1.0899 0.7617,0.1758 1.3535,0.5405 1.7753,1.0942 0.4219,0.5537 0.6329,1.2466 0.6329,2.0786 0,1.125 -0.4102,2.0787 -1.2305,2.86088 C 7.1426,-0.1626 6.1055,0.22852 4.8516,0.22852 3.7207,0.22852 2.7817,-0.1084 2.0347,-0.78223 1.2876,-1.4561 0.86133,-2.3291 0.75586,-3.4014 z" id="path4440" style="font-size:18px;font-variant:normal;font-weight:normal;writing-mode:lr-tb;fill:#000000;fill-opacity:1;fill-rule:nonzero;stroke:none;font-family:Helvetica;-inkscape-font-specification:Helvetica"/></g></g><path d="m 164.95,106.65 -7.65,0 2.9,28.9 0.9,0.5 0.9,-0.5" id="path3229" style="fill:#000000;fill-opacity:1;fill-rule:nonzero;stroke:none"/><g transform="translate(7.9982,7.9981)" id="g3231" style="fill:#000000"><g transform="matrix(1,0,0,-1,246.85,257.5)" id="text3233" style="fill:#000000"><path d="m 1.1602,-8.3672 c 0,-2.8518 0.7656,-5.0838 2.2968,-6.6968 1.5313,-1.614 3.5078,-2.42 5.9297,-2.42 1.5863,0 3.0153,0.379 4.2893,1.136 1.273,0.758 2.244,1.815 2.912,3.17 0.668,1.356 1.002,2.893 1.002,4.6116 0,1.7422 -0.352,3.3008 -1.055,4.6758 -0.703,1.375 -1.699,2.416 -2.988,3.12302 -1.289,0.70703 -2.68,1.06055 -4.172,1.06055 -1.6172,0 -3.0625,-0.39063 -4.3359,-1.17188 C 3.7656,-1.6602 2.8008,-2.7266 2.1445,-4.0781 1.4883,-5.4297 1.1602,-6.8594 1.1602,-8.3672 z m 2.3437,0.035 c 0,2.0703 0.5566,3.7011 1.6699,4.8925 1.1133,1.1915 2.5098,1.7872 4.1895,1.7872 1.7107,0 3.1187,-0.6016 4.2247,-1.8047 1.105,-1.2032 1.658,-2.9102 1.658,-5.1211 0,-1.3985 -0.236,-2.6187 -0.709,-3.6617 -0.473,-1.043 -1.164,-1.852 -2.074,-2.426 -0.91,-0.574 -1.932,-0.861 -3.0646,-0.861 -1.6093,0 -2.9941,0.552 -4.1543,1.658 -1.1601,1.105 -1.7402,2.951 -1.7402,5.5368 z" id="path4430" style="font-size:24px;font-variant:normal;font-weight:normal;writing-mode:lr-tb;fill:#000000;fill-opacity:1;fill-rule:nonzero;stroke:none;font-family:Helvetica;-inkscape-font-specification:Helvetica"/><path d="m 20.594,0 0,-17.18 2.273,0 0,7.055 8.93,0 0,-7.055 2.273,0 0,17.18 -2.273,0 0,-8.0977 -8.93,0 0,8.0977 z" id="path4432" style="font-size:24px;font-variant:normal;font-weight:normal;writing-mode:lr-tb;fill:#000000;fill-opacity:1;fill-rule:nonzero;stroke:none;font-family:Helvetica;-inkscape-font-specification:Helvetica"/></g></g><path d="m 252.55,272.6 3.85,-6.6 -25.7,-11.45 -0.85,0.55 0,1" id="path3237" style="fill:#000000;fill-opacity:1;fill-rule:nonzero;stroke:none"/><path d="m 370.3,45.048 -0.45,-1 -1.85,1.55 -27.25,47.35 0.4,1 1.75,-1.35" id="path3239" style="fill:#000000;fill-opacity:1;fill-rule:nonzero;stroke:none"/><path d="m 256.9,55.048 -6.65,-3.8 -20.85,42.5 0.85,0.2 1.95,-1.45" id="path3241" style="fill:#000000;fill-opacity:1;fill-rule:nonzero;stroke:none"/><path d="m 285.6,78.898 0,-1.75 -53.4,15.35 -1.95,1.45 0.85,0.65" id="path3243" style="fill:#000000;fill-opacity:1;fill-rule:nonzero;stroke:none"/><path d="m 285.6,77.148 0,1.75 54.7,15.7 0.85,-0.65 -0.4,-1" id="path3245" style="fill:#000000;fill-opacity:1;fill-rule:nonzero;stroke:none"/><g transform="translate(7.9982,7.9981)" id="g3247" style="fill:#000000"><g transform="matrix(1,0,0,-1,317.6,8.1)" id="text3249" style="fill:#000000"><path d="m 14.109,-6.0234 2.274,0.5742 c -0.477,1.8672 -1.334,3.291 -2.572,4.2715 -1.239,0.98043 -2.752,1.47067 -4.5415,1.47067 -1.8515,0 -3.3574,-0.37695 -4.5175,-1.13086 C 3.5918,-1.5918 2.709,-2.6836 2.1035,-4.1133 1.498,-5.543 1.1953,-7.0781 1.1953,-8.7187 c 0,-1.7893 0.3418,-3.3493 1.0254,-4.6813 0.6836,-1.332 1.6562,-2.344 2.918,-3.036 1.2617,-0.691 2.6504,-1.037 4.166,-1.037 1.7183,0 3.1643,0.438 4.3363,1.313 1.171,0.875 1.988,2.105 2.449,3.691 l -2.238,0.528 c -0.399,-1.25 -0.977,-2.161 -1.735,-2.731 -0.758,-0.57 -1.711,-0.855 -2.8592,-0.855 -1.3203,0 -2.4238,0.316 -3.3105,0.949 -0.8868,0.633 -1.5098,1.482 -1.8692,2.549 -0.3594,1.066 -0.539,2.1657 -0.539,3.2985 0,1.461 0.2128,2.7364 0.6386,3.8262 0.4258,1.0899 1.0879,1.9043 1.9864,2.4434 0.8984,0.539 1.871,0.8086 2.9179,0.8086 1.273,0 2.352,-0.3672 3.234,-1.1016 0.883,-0.7344 1.481,-1.8242 1.793,-3.2695 z" id="path4422" style="font-size:24px;font-variant:normal;font-weight:normal;writing-mode:lr-tb;fill:#000000;fill-opacity:1;fill-rule:nonzero;stroke:none;font-family:Helvetica;-inkscape-font-specification:Helvetica"/><path d="m 19.25,0 0,-17.18 2.273,0 0,7.055 8.93,0 0,-7.055 2.273,0 0,17.18 -2.273,0 0,-8.0977 -8.93,0 0,8.0977 z" id="path4424" style="font-size:24px;font-variant:normal;font-weight:normal;writing-mode:lr-tb;fill:#000000;fill-opacity:1;fill-rule:nonzero;stroke:none;font-family:Helvetica;-inkscape-font-specification:Helvetica"/></g><g transform="matrix(1,0,0,-1,352.26,3.6)" id="text3253" style="fill:#000000"><path d="M 0.75586,-3.4014 2.3379,-3.6123 c 0.1816,0.8965 0.4907,1.5425 0.9272,1.938 0.4366,0.3955 0.9683,0.5932 1.5953,0.5932 0.7441,0 1.3725,-0.2578 1.8852,-0.7734 0.5127,-0.5156 0.769,-1.1543 0.769,-1.916 0,-0.7266 -0.2373,-1.3257 -0.7119,-1.7974 -0.4746,-0.4716 -1.0781,-0.7075 -1.8105,-0.7075 -0.2988,0 -0.6709,0.059 -1.1162,0.1758 l 0.1758,-1.3887 c 0.1054,0.012 0.1904,0.018 0.2548,0.018 0.6739,0 1.2803,-0.1758 1.8194,-0.5273 0.539,-0.3516 0.8086,-0.8936 0.8086,-1.626 0,-0.5804 -0.1963,-1.0614 -0.5889,-1.4414 -0.3926,-0.381 -0.8994,-0.572 -1.5205,-0.572 -0.6152,0 -1.1279,0.194 -1.5381,0.58 -0.4101,0.387 -0.6738,0.967 -0.791,1.741 L 0.91406,-9.5977 C 1.1074,-10.658 1.5469,-11.48 2.2324,-12.063 c 0.6856,-0.583 1.5381,-0.874 2.5576,-0.875 0.7032,0 1.3506,0.151 1.9424,0.453 0.5918,0.302 1.0444,0.714 1.3579,1.235 0.3135,0.521 0.4702,1.075 0.4702,1.6611 0,0.5567 -0.1494,1.0635 -0.4482,1.5205 -0.2988,0.4571 -0.7412,0.8204 -1.3271,1.0899 0.7617,0.1758 1.3535,0.5405 1.7753,1.0942 0.4219,0.5537 0.6329,1.2466 0.6329,2.0786 0,1.125 -0.4102,2.0787 -1.2305,2.86088 C 7.1426,-0.1626 6.1055,0.22852 4.8516,0.22852 3.7207,0.22852 2.7817,-0.1084 2.0347,-0.78223 1.2876,-1.4561 0.86133,-2.3291 0.75586,-3.4014 z" id="path4427" style="font-size:18px;font-variant:normal;font-weight:normal;writing-mode:lr-tb;fill:#000000;fill-opacity:1;fill-rule:nonzero;stroke:none;font-family:Helvetica;-inkscape-font-specification:Helvetica"/></g></g><path d="m 315.05,57.348 -0.5,2.55 3.75,-4.8 11.75,-20.35 -1.45,-0.85" id="path3257" style="fill:#000000;fill-opacity:1;fill-rule:nonzero;stroke:none"/><g transform="translate(7.9982,7.9981)" id="g3259" style="fill:#000000"><g transform="matrix(1,0,0,-1,391,36.15)" id="text3261" style="fill:#000000"><path d="m 1.1602,-8.3672 c 0,-2.8518 0.7656,-5.0838 2.2968,-6.6968 1.5313,-1.614 3.5078,-2.42 5.9297,-2.42 1.5863,0 3.0153,0.379 4.2893,1.136 1.273,0.758 2.244,1.815 2.912,3.17 0.668,1.356 1.002,2.893 1.002,4.6116 0,1.7422 -0.352,3.3008 -1.055,4.6758 -0.703,1.375 -1.699,2.416 -2.988,3.12302 -1.289,0.70703 -2.68,1.06055 -4.172,1.06055 -1.6172,0 -3.0625,-0.39063 -4.3359,-1.17188 C 3.7656,-1.6602 2.8008,-2.7266 2.1445,-4.0781 1.4883,-5.4297 1.1602,-6.8594 1.1602,-8.3672 z m 2.3437,0.035 c 0,2.0703 0.5566,3.7011 1.6699,4.8925 1.1133,1.1915 2.5098,1.7872 4.1895,1.7872 1.7107,0 3.1187,-0.6016 4.2247,-1.8047 1.105,-1.2032 1.658,-2.9102 1.658,-5.1211 0,-1.3985 -0.236,-2.6187 -0.709,-3.6617 -0.473,-1.043 -1.164,-1.852 -2.074,-2.426 -0.91,-0.574 -1.932,-0.861 -3.0646,-0.861 -1.6093,0 -2.9941,0.552 -4.1543,1.658 -1.1601,1.105 -1.7402,2.951 -1.7402,5.5368 z" id="path4417" style="font-size:24px;font-variant:normal;font-weight:normal;writing-mode:lr-tb;fill:#000000;fill-opacity:1;fill-rule:nonzero;stroke:none;font-family:Helvetica;-inkscape-font-specification:Helvetica"/><path d="m 20.594,0 0,-17.18 2.273,0 0,7.055 8.93,0 0,-7.055 2.273,0 0,17.18 -2.273,0 0,-8.0977 -8.93,0 0,8.0977 z" id="path4419" style="font-size:24px;font-variant:normal;font-weight:normal;writing-mode:lr-tb;fill:#000000;fill-opacity:1;fill-rule:nonzero;stroke:none;font-family:Helvetica;-inkscape-font-specification:Helvetica"/></g></g><path d="m 397.65,51.798 0.4,-1.65 -28.2,-6.95 0,0.85 0.45,1" id="path3265" style="fill:#000000;fill-opacity:1;fill-rule:nonzero;stroke:none"/><path d="m 269.55,44.448 -1.4,4.9 48.65,13.8 -2.25,-3.25 0.5,-2.55" id="path3267" style="fill:#000000;fill-opacity:1;fill-rule:nonzero;stroke:none"/><g transform="translate(7.9982,7.9981)" id="g3269" style="fill:#000000"><g transform="matrix(1,0,0,-1,241.45,26.65)" id="text3271" style="fill:#000000"><path d="m 1.1602,-8.3672 c 0,-2.8518 0.7656,-5.0838 2.2968,-6.6968 1.5313,-1.614 3.5078,-2.42 5.9297,-2.42 1.5863,0 3.0153,0.379 4.2893,1.136 1.273,0.758 2.244,1.815 2.912,3.17 0.668,1.356 1.002,2.893 1.002,4.6116 0,1.7422 -0.352,3.3008 -1.055,4.6758 -0.703,1.375 -1.699,2.416 -2.988,3.12302 -1.289,0.70703 -2.68,1.06055 -4.172,1.06055 -1.6172,0 -3.0625,-0.39063 -4.3359,-1.17188 C 3.7656,-1.6602 2.8008,-2.7266 2.1445,-4.0781 1.4883,-5.4297 1.1602,-6.8594 1.1602,-8.3672 z m 2.3437,0.035 c 0,2.0703 0.5566,3.7011 1.6699,4.8925 1.1133,1.1915 2.5098,1.7872 4.1895,1.7872 1.7107,0 3.1187,-0.6016 4.2247,-1.8047 1.105,-1.2032 1.658,-2.9102 1.658,-5.1211 0,-1.3985 -0.236,-2.6187 -0.709,-3.6617 -0.473,-1.043 -1.164,-1.852 -2.074,-2.426 -0.91,-0.574 -1.932,-0.861 -3.0646,-0.861 -1.6093,0 -2.9941,0.552 -4.1543,1.658 -1.1601,1.105 -1.7402,2.951 -1.7402,5.5368 z" id="path4407" style="font-size:24px;font-variant:normal;font-weight:normal;writing-mode:lr-tb;fill:#000000;fill-opacity:1;fill-rule:nonzero;stroke:none;font-family:Helvetica;-inkscape-font-specification:Helvetica"/><path d="m 135.36,-45.623 2.27,0.574 c -0.47,1.867 -1.33,3.291 -2.57,4.271 -1.24,0.981 -2.75,1.471 -4.54,1.471 -1.85,0 -3.36,-0.377 -4.52,-1.131 -1.16,-0.754 -2.04,-1.846 -2.65,-3.275 -0.6,-1.43 -0.9,-2.965 -0.9,-4.606 0,-1.789 0.34,-3.349 1.02,-4.681 0.68,-1.332 1.66,-2.344 2.92,-3.036 1.26,-0.691 2.65,-1.037 4.16,-1.037 1.72,0 3.17,0.438 4.34,1.313 1.17,0.875 1.99,2.105 2.45,3.691 l -2.24,0.528 c -0.4,-1.25 -0.98,-2.161 -1.73,-2.731 -0.76,-0.57 -1.71,-0.855 -2.86,-0.855 -1.32,0 -2.43,0.316 -3.31,0.949 -0.89,0.633 -1.51,1.482 -1.87,2.549 -0.36,1.066 -0.54,2.166 -0.54,3.299 0,1.46 0.21,2.736 0.64,3.826 0.42,1.09 1.09,1.904 1.98,2.443 0.9,0.539 1.88,0.809 2.92,0.809 1.28,0 2.35,-0.368 3.24,-1.102 0.88,-0.734 1.48,-1.824 1.79,-3.269 z" id="path4409" style="font-size:24px;font-variant:normal;font-weight:normal;writing-mode:lr-tb;fill:#000000;fill-opacity:1;fill-rule:nonzero;stroke:none;font-family:Helvetica;-inkscape-font-specification:Helvetica"/><path d="m 140.5,-39.6 0,-17.18 2.27,0 0,7.055 8.93,0 0,-7.055 2.28,0 0,17.18 -2.28,0 0,-8.098 -8.93,0 0,8.098 z" id="path4411" style="font-size:24px;font-variant:normal;font-weight:normal;writing-mode:lr-tb;fill:#000000;fill-opacity:1;fill-rule:nonzero;stroke:none;font-family:Helvetica;-inkscape-font-specification:Helvetica"/></g><g transform="matrix(1,0,0,-1,397.36,61.75)" id="text3277" style="fill:#000000"><path d="M 0.75586,-3.4014 2.3379,-3.6123 c 0.1816,0.8965 0.4907,1.5425 0.9272,1.938 0.4366,0.3955 0.9683,0.5932 1.5953,0.5932 0.7441,0 1.3725,-0.2578 1.8852,-0.7734 0.5127,-0.5156 0.769,-1.1543 0.769,-1.916 0,-0.7266 -0.2373,-1.3257 -0.7119,-1.7974 -0.4746,-0.4716 -1.0781,-0.7075 -1.8105,-0.7075 -0.2988,0 -0.6709,0.059 -1.1162,0.1758 l 0.1758,-1.3887 c 0.1054,0.012 0.1904,0.018 0.2548,0.018 0.6739,0 1.2803,-0.1758 1.8194,-0.5273 0.539,-0.3516 0.8086,-0.8936 0.8086,-1.626 0,-0.5804 -0.1963,-1.0614 -0.5889,-1.4414 -0.3926,-0.381 -0.8994,-0.572 -1.5205,-0.572 -0.6152,0 -1.1279,0.194 -1.5381,0.58 -0.4101,0.387 -0.6738,0.967 -0.791,1.741 L 0.91406,-9.5977 C 1.1074,-10.658 1.5469,-11.48 2.2324,-12.063 c 0.6856,-0.583 1.5381,-0.874 2.5576,-0.875 0.7032,0 1.3506,0.151 1.9424,0.453 0.5918,0.302 1.0444,0.714 1.3579,1.235 0.3135,0.521 0.4702,1.075 0.4702,1.6611 0,0.5567 -0.1494,1.0635 -0.4482,1.5205 -0.2988,0.4571 -0.7412,0.8204 -1.3271,1.0899 0.7617,0.1758 1.3535,0.5405 1.7753,1.0942 0.4219,0.5537 0.6329,1.2466 0.6329,2.0786 0,1.125 -0.4102,2.0787 -1.2305,2.86088 C 7.1426,-0.1626 6.1055,0.22852 4.8516,0.22852 3.7207,0.22852 2.7817,-0.1084 2.0347,-0.78223 1.2876,-1.4561 0.86133,-2.3291 0.75586,-3.4014 z" id="path4414" style="font-size:18px;font-variant:normal;font-weight:normal;writing-mode:lr-tb;fill:#000000;fill-opacity:1;fill-rule:nonzero;stroke:none;font-family:Helvetica;-inkscape-font-specification:Helvetica"/></g></g><path d="m 370.15,87.098 -0.4,-1.65 -26.85,7.15 -1.75,1.35 0.85,0.65" id="path3281" style="fill:#000000;fill-opacity:1;fill-rule:nonzero;stroke:none"/><g transform="translate(7.9982,7.9981)" id="g3283" style="fill:#000000"><g transform="matrix(1,0,0,-1,323.8,116.25)" id="text3285" style="fill:#000000"><path d="m 1.1602,-8.3672 c 0,-2.8518 0.7656,-5.0838 2.2968,-6.6968 1.5313,-1.614 3.5078,-2.42 5.9297,-2.42 1.5863,0 3.0153,0.379 4.2893,1.136 1.273,0.758 2.244,1.815 2.912,3.17 0.668,1.356 1.002,2.893 1.002,4.6116 0,1.7422 -0.352,3.3008 -1.055,4.6758 -0.703,1.375 -1.699,2.416 -2.988,3.12302 -1.289,0.70703 -2.68,1.06055 -4.172,1.06055 -1.6172,0 -3.0625,-0.39063 -4.3359,-1.17188 C 3.7656,-1.6602 2.8008,-2.7266 2.1445,-4.0781 1.4883,-5.4297 1.1602,-6.8594 1.1602,-8.3672 z m 2.3437,0.035 c 0,2.0703 0.5566,3.7011 1.6699,4.8925 1.1133,1.1915 2.5098,1.7872 4.1895,1.7872 1.7107,0 3.1187,-0.6016 4.2247,-1.8047 1.105,-1.2032 1.658,-2.9102 1.658,-5.1211 0,-1.3985 -0.236,-2.6187 -0.709,-3.6617 -0.473,-1.043 -1.164,-1.852 -2.074,-2.426 -0.91,-0.574 -1.932,-0.861 -3.0646,-0.861 -1.6093,0 -2.9941,0.552 -4.1543,1.658 -1.1601,1.105 -1.7402,2.951 -1.7402,5.5368 z" id="path4397" style="font-size:24px;font-variant:normal;font-weight:normal;writing-mode:lr-tb;fill:#000000;fill-opacity:1;fill-rule:nonzero;stroke:none;font-family:Helvetica;-inkscape-font-specification:Helvetica"/><path d="m 32.781,-6.0234 2.274,0.5742 c -0.477,1.8672 -1.334,3.291 -2.572,4.2715 -1.239,0.98043 -2.752,1.47067 -4.541,1.47067 -1.852,0 -3.358,-0.37695 -4.518,-1.13086 -1.16,-0.75391 -2.043,-1.84571 -2.648,-3.27541 -0.606,-1.4297 -0.909,-2.9648 -0.909,-4.6054 0,-1.7893 0.342,-3.3493 1.026,-4.6813 0.683,-1.332 1.656,-2.344 2.918,-3.036 1.261,-0.691 2.65,-1.037 4.166,-1.037 1.718,0 3.164,0.438 4.336,1.313 1.171,0.875 1.988,2.105 2.449,3.691 l -2.238,0.528 c -0.399,-1.25 -0.977,-2.161 -1.735,-2.731 -0.758,-0.57 -1.711,-0.855 -2.859,-0.855 -1.321,0 -2.424,0.316 -3.311,0.949 -0.886,0.633 -1.51,1.482 -1.869,2.549 -0.359,1.066 -0.539,2.1657 -0.539,3.2985 0,1.461 0.213,2.7364 0.639,3.8262 0.426,1.0899 1.088,1.9043 1.986,2.4434 0.898,0.539 1.871,0.8086 2.918,0.8086 1.273,0 2.352,-0.3672 3.234,-1.1016 0.883,-0.7344 1.481,-1.8242 1.793,-3.2695 z" id="path4399" style="font-size:24px;font-variant:normal;font-weight:normal;writing-mode:lr-tb;fill:#000000;fill-opacity:1;fill-rule:nonzero;stroke:none;font-family:Helvetica;-inkscape-font-specification:Helvetica"/><path d="m 37.922,0 0,-17.18 2.273,0 0,7.055 8.93,0 0,-7.055 2.273,0 0,17.18 -2.273,0 0,-8.0977 -8.93,0 0,8.0977 z" id="path4401" style="font-size:24px;font-variant:normal;font-weight:normal;writing-mode:lr-tb;fill:#000000;fill-opacity:1;fill-rule:nonzero;stroke:none;font-family:Helvetica;-inkscape-font-specification:Helvetica"/></g><g transform="matrix(1,0,0,-1,377.13,111.75)" id="text3289" style="fill:#000000"><path d="M 0.75586,-3.4014 2.3379,-3.6123 c 0.1816,0.8965 0.4907,1.5425 0.9272,1.938 0.4366,0.3955 0.9683,0.5932 1.5953,0.5932 0.7441,0 1.3725,-0.2578 1.8852,-0.7734 0.5127,-0.5156 0.769,-1.1543 0.769,-1.916 0,-0.7266 -0.2373,-1.3257 -0.7119,-1.7974 -0.4746,-0.4716 -1.0781,-0.7075 -1.8105,-0.7075 -0.2988,0 -0.6709,0.059 -1.1162,0.1758 l 0.1758,-1.3887 c 0.1054,0.012 0.1904,0.018 0.2548,0.018 0.6739,0 1.2803,-0.1758 1.8194,-0.5273 0.539,-0.3516 0.8086,-0.8936 0.8086,-1.626 0,-0.5804 -0.1963,-1.0614 -0.5889,-1.4414 -0.3926,-0.381 -0.8994,-0.572 -1.5205,-0.572 -0.6152,0 -1.1279,0.194 -1.5381,0.58 -0.4101,0.387 -0.6738,0.967 -0.791,1.741 L 0.91406,-9.5977 C 1.1074,-10.658 1.5469,-11.48 2.2324,-12.063 c 0.6856,-0.583 1.5381,-0.874 2.5576,-0.875 0.7032,0 1.3506,0.151 1.9424,0.453 0.5918,0.302 1.0444,0.714 1.3579,1.235 0.3135,0.521 0.4702,1.075 0.4702,1.6611 0,0.5567 -0.1494,1.0635 -0.4482,1.5205 -0.2988,0.4571 -0.7412,0.8204 -1.3271,1.0899 0.7617,0.1758 1.3535,0.5405 1.7753,1.0942 0.4219,0.5537 0.6329,1.2466 0.6329,2.0786 0,1.125 -0.4102,2.0787 -1.2305,2.86088 C 7.1426,-0.1626 6.1055,0.22852 4.8516,0.22852 3.7207,0.22852 2.7817,-0.1084 2.0347,-0.78223 1.2876,-1.4561 0.86133,-2.3291 0.75586,-3.4014 z" id="path4404" style="font-size:18px;font-variant:normal;font-weight:normal;writing-mode:lr-tb;fill:#000000;fill-opacity:1;fill-rule:nonzero;stroke:none;font-family:Helvetica;-inkscape-font-specification:Helvetica"/></g></g><path d="m 340.3,121.7 1.7,0 0,-27.102 -0.85,-0.65 -0.85,0.65" id="path3293" style="fill:#000000;fill-opacity:1;fill-rule:nonzero;stroke:none"/><g transform="translate(7.9982,7.9981)" id="g3295" style="fill:#000000"><g transform="matrix(1,0,0,-1,75.05,118.65)" id="text3297" style="fill:#000000"><path d="m 1.1602,-8.3672 c 0,-2.8518 0.7656,-5.0838 2.2968,-6.6968 1.5313,-1.614 3.5078,-2.42 5.9297,-2.42 1.5863,0 3.0153,0.379 4.2893,1.136 1.273,0.758 2.244,1.815 2.912,3.17 0.668,1.356 1.002,2.893 1.002,4.6116 0,1.7422 -0.352,3.3008 -1.055,4.6758 -0.703,1.375 -1.699,2.416 -2.988,3.12302 -1.289,0.70703 -2.68,1.06055 -4.172,1.06055 -1.6172,0 -3.0625,-0.39063 -4.3359,-1.17188 C 3.7656,-1.6602 2.8008,-2.7266 2.1445,-4.0781 1.4883,-5.4297 1.1602,-6.8594 1.1602,-8.3672 z m 2.3437,0.035 c 0,2.0703 0.5566,3.7011 1.6699,4.8925 1.1133,1.1915 2.5098,1.7872 4.1895,1.7872 1.7107,0 3.1187,-0.6016 4.2247,-1.8047 1.105,-1.2032 1.658,-2.9102 1.658,-5.1211 0,-1.3985 -0.236,-2.6187 -0.709,-3.6617 -0.473,-1.043 -1.164,-1.852 -2.074,-2.426 -0.91,-0.574 -1.932,-0.861 -3.0646,-0.861 -1.6093,0 -2.9941,0.552 -4.1543,1.658 -1.1601,1.105 -1.7402,2.951 -1.7402,5.5368 z" id="path4394" style="font-size:24px;font-variant:normal;font-weight:normal;writing-mode:lr-tb;fill:#000000;fill-opacity:1;fill-rule:nonzero;stroke:none;font-family:Helvetica;-inkscape-font-specification:Helvetica"/></g></g><path d="m 103.4,137.95 -0.85,1.5 26.75,15.45 0.85,-1.45" id="path3301" style="fill:#000000;fill-opacity:1;fill-rule:nonzero;stroke:none"/><path d="m 100.4,143.1 -0.852,1.5 26.752,15.45 0.9,-1.45" id="path3303" style="fill:#000000;fill-opacity:1;fill-rule:nonzero;stroke:none"/><g transform="translate(7.9982,7.9981)" id="g3305" style="fill:#000000"><g transform="matrix(1,0,0,-1,143.75,356.7)" id="text3307" style="fill:#000000"><path d="m 1.1602,-8.3672 c 0,-2.8518 0.7656,-5.0838 2.2968,-6.6968 1.5313,-1.614 3.5078,-2.42 5.9297,-2.42 1.5863,0 3.0153,0.379 4.2893,1.136 1.273,0.758 2.244,1.815 2.912,3.17 0.668,1.356 1.002,2.893 1.002,4.6116 0,1.7422 -0.352,3.3008 -1.055,4.6758 -0.703,1.375 -1.699,2.416 -2.988,3.12302 -1.289,0.70703 -2.68,1.06055 -4.172,1.06055 -1.6172,0 -3.0625,-0.39063 -4.3359,-1.17188 C 3.7656,-1.6602 2.8008,-2.7266 2.1445,-4.0781 1.4883,-5.4297 1.1602,-6.8594 1.1602,-8.3672 z m 2.3437,0.035 c 0,2.0703 0.5566,3.7011 1.6699,4.8925 1.1133,1.1915 2.5098,1.7872 4.1895,1.7872 1.7107,0 3.1187,-0.6016 4.2247,-1.8047 1.105,-1.2032 1.658,-2.9102 1.658,-5.1211 0,-1.3985 -0.236,-2.6187 -0.709,-3.6617 -0.473,-1.043 -1.164,-1.852 -2.074,-2.426 -0.91,-0.574 -1.932,-0.861 -3.0646,-0.861 -1.6093,0 -2.9941,0.552 -4.1543,1.658 -1.1601,1.105 -1.7402,2.951 -1.7402,5.5368 z" id="path4391" style="font-size:24px;font-variant:normal;font-weight:normal;writing-mode:lr-tb;fill:#000000;fill-opacity:1;fill-rule:nonzero;stroke:none;font-family:Helvetica;-inkscape-font-specification:Helvetica"/></g></g><path d="m 157.3,332.75 1.7,0 0,29.35 -1.7,0 0,-29.35 z" id="path3311" style="fill:#000000;fill-opacity:1;fill-rule:nonzero;stroke:none"/><path d="m 163.25,332.75 1.7,0 0,29.35 -1.7,0 0,-29.35 z" id="path3313" style="fill:#000000;fill-opacity:1;fill-rule:nonzero;stroke:none"/><path d="m 313.3,180.65 -1.9,-1.6 -0.45,0.95 27.4,47.6 1.75,1.35 0.4,-1" id="path3315" style="fill:#000000;fill-opacity:1;fill-rule:nonzero;stroke:none"/><path d="m 355.2,195.6 2.1,-7.4 -45.9,-10 0,0.85 1.9,1.6" id="path3317" style="fill:#000000;fill-opacity:1;fill-rule:nonzero;stroke:none"/><path d="m 427.95,181.4 -5.5,-2.35 -2.4,3.35 29.05,45.15 3.55,2.8" id="path3319" style="fill:#000000;fill-opacity:1;fill-rule:nonzero;stroke:none"/><path d="m 395.65,212.15 0,0.85 1.8,1.4 55.2,15.95 -3.55,-2.8" id="path3321" style="fill:#000000;fill-opacity:1;fill-rule:nonzero;stroke:none"/><path d="m 395.25,214 0.4,-1 0,-0.85 -55.15,15.8 -0.4,1 0,0.9" id="path3323" style="fill:#000000;fill-opacity:1;fill-rule:nonzero;stroke:none"/><g transform="translate(7.9982,7.9981)" id="g3325" style="fill:#000000"><g transform="matrix(1,0,0,-1,399.1,229.95)" id="text3327" style="fill:#000000"><path d="m 1.8281,0 0,-17.18 2.3321,0 9.0238,13.4886 0,-13.4886 2.179,0 0,17.18 -2.332,0 -9.0232,-13.5 0,13.5 z" id="path4388" style="font-size:24px;font-variant:normal;font-weight:normal;writing-mode:lr-tb;fill:#000000;fill-opacity:1;fill-rule:nonzero;stroke:none;font-family:Helvetica;-inkscape-font-specification:Helvetica"/></g></g><path d="m 407.95,235.95 1.45,-0.85 -11.95,-20.7 -1.8,-1.4 -0.4,1" id="path3331" style="fill:#000000;fill-opacity:1;fill-rule:nonzero;stroke:none"/><path d="m 420.05,182.4 2.4,-3.35 -3.2,-1.7 -42.75,12.1 1.35,4.9" id="path3333" style="fill:#000000;fill-opacity:1;fill-rule:nonzero;stroke:none"/><g transform="translate(7.9982,7.9981)" id="g3335" style="fill:#000000"><g transform="matrix(1,0,0,-1,349.35,177.45)" id="text3337" style="fill:#000000"><path d="m 1.1602,-8.3672 c 0,-2.8518 0.7656,-5.0838 2.2968,-6.6968 1.5313,-1.614 3.5078,-2.42 5.9297,-2.42 1.5863,0 3.0153,0.379 4.2893,1.136 1.273,0.758 2.244,1.815 2.912,3.17 0.668,1.356 1.002,2.893 1.002,4.6116 0,1.7422 -0.352,3.3008 -1.055,4.6758 -0.703,1.375 -1.699,2.416 -2.988,3.12302 -1.289,0.70703 -2.68,1.06055 -4.172,1.06055 -1.6172,0 -3.0625,-0.39063 -4.3359,-1.17188 C 3.7656,-1.6602 2.8008,-2.7266 2.1445,-4.0781 1.4883,-5.4297 1.1602,-6.8594 1.1602,-8.3672 z m 2.3437,0.035 c 0,2.0703 0.5566,3.7011 1.6699,4.8925 1.1133,1.1915 2.5098,1.7872 4.1895,1.7872 1.7107,0 3.1187,-0.6016 4.2247,-1.8047 1.105,-1.2032 1.658,-2.9102 1.658,-5.1211 0,-1.3985 -0.236,-2.6187 -0.709,-3.6617 -0.473,-1.043 -1.164,-1.852 -2.074,-2.426 -0.91,-0.574 -1.932,-0.861 -3.0646,-0.861 -1.6093,0 -2.9941,0.552 -4.1543,1.658 -1.1601,1.105 -1.7402,2.951 -1.7402,5.5368 z" id="path4381" style="font-size:24px;font-variant:normal;font-weight:normal;writing-mode:lr-tb;fill:#000000;fill-opacity:1;fill-rule:nonzero;stroke:none;font-family:Helvetica;-inkscape-font-specification:Helvetica"/><path d="m -80.228,-23.8 0,-17.18 2.273,0 0,7.055 8.93,0 0,-7.055 2.273,0 0,17.18 -2.273,0 0,-8.098 -8.93,0 0,8.098 z" id="path4383" style="font-size:24px;font-variant:normal;font-weight:normal;writing-mode:lr-tb;fill:#000000;fill-opacity:1;fill-rule:nonzero;stroke:none;font-family:Helvetica;-inkscape-font-specification:Helvetica"/><path d="m -63.662,-32.167 c 0,-2.852 0.766,-5.084 2.297,-6.697 1.531,-1.614 3.508,-2.42 5.93,-2.42 1.586,0 3.015,0.379 4.289,1.136 1.273,0.758 2.244,1.815 2.912,3.17 0.668,1.356 1.002,2.893 1.002,4.612 0,1.742 -0.352,3.3 -1.055,4.675 -0.703,1.375 -1.699,2.416 -2.988,3.123 -1.289,0.707 -2.68,1.061 -4.172,1.061 -1.617,0 -3.063,-0.391 -4.336,-1.172 -1.273,-0.781 -2.238,-1.848 -2.894,-3.199 -0.657,-1.352 -0.985,-2.781 -0.985,-4.289 z m 2.344,0.04 c 0,2.07 0.557,3.701 1.67,4.893 1.113,1.191 2.51,1.787 4.189,1.787 1.711,0 3.119,-0.602 4.225,-1.805 1.105,-1.203 1.658,-2.91 1.658,-5.121 0,-1.399 -0.236,-2.619 -0.709,-3.662 -0.473,-1.043 -1.164,-1.852 -2.074,-2.426 -0.91,-0.574 -1.932,-0.861 -3.065,-0.861 -1.609,0 -2.994,0.552 -4.154,1.658 -1.16,1.105 -1.74,2.951 -1.74,5.537 z" id="path4385" style="font-size:24px;font-variant:normal;font-weight:normal;writing-mode:lr-tb;fill:#000000;fill-opacity:1;fill-rule:nonzero;stroke:none;font-family:Helvetica;-inkscape-font-specification:Helvetica"/></g></g><path d="m 312.1,220.6 -0.45,1.65 28.45,7.6 0,-0.9 -1.75,-1.35" id="path3343" style="fill:#000000;fill-opacity:1;fill-rule:nonzero;stroke:none"/><path d="m 228.95,124.1 1.7,0 0.45,-29.502 -0.85,-0.65 -0.85,-0.2" id="path3345" style="fill:#000000;fill-opacity:1;fill-rule:nonzero;stroke:none"/><path d="m 268.45,186 0.3,1.65 42.2,-7.65 0.45,-0.95 0,-0.85" id="path3347" style="fill:#000000;fill-opacity:1;fill-rule:nonzero;stroke:none"/><g transform="translate(7.9982,7.9981)" id="g3349" style="fill:#000000"><g transform="matrix(1,0,0,-1,351.52,264.35)" id="text3351" style="fill:#000000"><path d="m 1.9219,0 0,-17.18 2.2734,0 0,7.055 8.9297,0 0,-7.055 2.273,0 0,17.18 -2.273,0 0,-8.0977 -8.9297,0 0,8.0977 z" id="path4372" style="font-size:24px;font-variant:normal;font-weight:normal;writing-mode:lr-tb;fill:#000000;fill-opacity:1;fill-rule:nonzero;stroke:none;font-family:Helvetica;-inkscape-font-specification:Helvetica"/></g><g transform="matrix(1,0,0,-1,368.85,259.85)" id="text3355" style="fill:#000000"><path d="M 0.75586,-3.4014 2.3379,-3.6123 c 0.1816,0.8965 0.4907,1.5425 0.9272,1.938 0.4366,0.3955 0.9683,0.5932 1.5953,0.5932 0.7441,0 1.3725,-0.2578 1.8852,-0.7734 0.5127,-0.5156 0.769,-1.1543 0.769,-1.916 0,-0.7266 -0.2373,-1.3257 -0.7119,-1.7974 -0.4746,-0.4716 -1.0781,-0.7075 -1.8105,-0.7075 -0.2988,0 -0.6709,0.059 -1.1162,0.1758 l 0.1758,-1.3887 c 0.1054,0.012 0.1904,0.018 0.2548,0.018 0.6739,0 1.2803,-0.1758 1.8194,-0.5273 0.539,-0.3516 0.8086,-0.8936 0.8086,-1.626 0,-0.5804 -0.1963,-1.0614 -0.5889,-1.4414 -0.3926,-0.381 -0.8994,-0.572 -1.5205,-0.572 -0.6152,0 -1.1279,0.194 -1.5381,0.58 -0.4101,0.387 -0.6738,0.967 -0.791,1.741 L 0.91406,-9.5977 C 1.1074,-10.658 1.5469,-11.48 2.2324,-12.063 c 0.6856,-0.583 1.5381,-0.874 2.5576,-0.875 0.7032,0 1.3506,0.151 1.9424,0.453 0.5918,0.302 1.0444,0.714 1.3579,1.235 0.3135,0.521 0.4702,1.075 0.4702,1.6611 0,0.5567 -0.1494,1.0635 -0.4482,1.5205 -0.2988,0.4571 -0.7412,0.8204 -1.3271,1.0899 0.7617,0.1758 1.3535,0.5405 1.7753,1.0942 0.4219,0.5537 0.6329,1.2466 0.6329,2.0786 0,1.125 -0.4102,2.0787 -1.2305,2.86088 C 7.1426,-0.1626 6.1055,0.22852 4.8516,0.22852 3.7207,0.22852 2.7817,-0.1084 2.0347,-0.78223 1.2876,-1.4561 0.86133,-2.3291 0.75586,-3.4014 z" id="path4375" style="font-size:18px;font-variant:normal;font-weight:normal;writing-mode:lr-tb;fill:#000000;fill-opacity:1;fill-rule:nonzero;stroke:none;font-family:Helvetica;-inkscape-font-specification:Helvetica"/></g><g transform="matrix(1,0,0,-1,378.86,264.35)" id="text3359" style="fill:#000000"><path d="m 14.109,-6.0234 2.274,0.5742 c -0.477,1.8672 -1.334,3.291 -2.572,4.2715 -1.239,0.98043 -2.752,1.47067 -4.5415,1.47067 -1.8515,0 -3.3574,-0.37695 -4.5175,-1.13086 C 3.5918,-1.5918 2.709,-2.6836 2.1035,-4.1133 1.498,-5.543 1.1953,-7.0781 1.1953,-8.7187 c 0,-1.7893 0.3418,-3.3493 1.0254,-4.6813 0.6836,-1.332 1.6562,-2.344 2.918,-3.036 1.2617,-0.691 2.6504,-1.037 4.166,-1.037 1.7183,0 3.1643,0.438 4.3363,1.313 1.171,0.875 1.988,2.105 2.449,3.691 l -2.238,0.528 c -0.399,-1.25 -0.977,-2.161 -1.735,-2.731 -0.758,-0.57 -1.711,-0.855 -2.8592,-0.855 -1.3203,0 -2.4238,0.316 -3.3105,0.949 -0.8868,0.633 -1.5098,1.482 -1.8692,2.549 -0.3594,1.066 -0.539,2.1657 -0.539,3.2985 0,1.461 0.2128,2.7364 0.6386,3.8262 0.4258,1.0899 1.0879,1.9043 1.9864,2.4434 0.8984,0.539 1.871,0.8086 2.9179,0.8086 1.273,0 2.352,-0.3672 3.234,-1.1016 0.883,-0.7344 1.481,-1.8242 1.793,-3.2695 z" id="path4378" style="font-size:24px;font-variant:normal;font-weight:normal;writing-mode:lr-tb;fill:#000000;fill-opacity:1;fill-rule:nonzero;stroke:none;font-family:Helvetica;-inkscape-font-specification:Helvetica"/></g></g><path d="m 400.9,271 1.45,0.85 7.75,-13.4 -1.45,-0.85" id="path3363" style="fill:#000000;fill-opacity:1;fill-rule:nonzero;stroke:none"/><g transform="translate(7.9982,7.9981)" id="g3365" style="fill:#000000"><g transform="matrix(1,0,0,-1,433.1,249.8)" id="text3367" style="fill:#000000"><path d="m 14.109,-6.0234 2.274,0.5742 c -0.477,1.8672 -1.334,3.291 -2.572,4.2715 -1.239,0.98043 -2.752,1.47067 -4.5415,1.47067 -1.8515,0 -3.3574,-0.37695 -4.5175,-1.13086 C 3.5918,-1.5918 2.709,-2.6836 2.1035,-4.1133 1.498,-5.543 1.1953,-7.0781 1.1953,-8.7187 c 0,-1.7893 0.3418,-3.3493 1.0254,-4.6813 0.6836,-1.332 1.6562,-2.344 2.918,-3.036 1.2617,-0.691 2.6504,-1.037 4.166,-1.037 1.7183,0 3.1643,0.438 4.3363,1.313 1.171,0.875 1.988,2.105 2.449,3.691 l -2.238,0.528 c -0.399,-1.25 -0.977,-2.161 -1.735,-2.731 -0.758,-0.57 -1.711,-0.855 -2.8592,-0.855 -1.3203,0 -2.4238,0.316 -3.3105,0.949 -0.8868,0.633 -1.5098,1.482 -1.8692,2.549 -0.3594,1.066 -0.539,2.1657 -0.539,3.2985 0,1.461 0.2128,2.7364 0.6386,3.8262 0.4258,1.0899 1.0879,1.9043 1.9864,2.4434 0.8984,0.539 1.871,0.8086 2.9179,0.8086 1.273,0 2.352,-0.3672 3.234,-1.1016 0.883,-0.7344 1.481,-1.8242 1.793,-3.2695 z" id="path4364" style="font-size:24px;font-variant:normal;font-weight:normal;writing-mode:lr-tb;fill:#000000;fill-opacity:1;fill-rule:nonzero;stroke:none;font-family:Helvetica;-inkscape-font-specification:Helvetica"/><path d="m 19.25,0 0,-17.18 2.273,0 0,7.055 8.93,0 0,-7.055 2.273,0 0,17.18 -2.273,0 0,-8.0977 -8.93,0 0,8.0977 z" id="path4366" style="font-size:24px;font-variant:normal;font-weight:normal;writing-mode:lr-tb;fill:#000000;fill-opacity:1;fill-rule:nonzero;stroke:none;font-family:Helvetica;-inkscape-font-specification:Helvetica"/></g><g transform="matrix(1,0,0,-1,467.76,245.3)" id="text3371" style="fill:#000000"><path d="M 0.75586,-3.4014 2.3379,-3.6123 c 0.1816,0.8965 0.4907,1.5425 0.9272,1.938 0.4366,0.3955 0.9683,0.5932 1.5953,0.5932 0.7441,0 1.3725,-0.2578 1.8852,-0.7734 0.5127,-0.5156 0.769,-1.1543 0.769,-1.916 0,-0.7266 -0.2373,-1.3257 -0.7119,-1.7974 -0.4746,-0.4716 -1.0781,-0.7075 -1.8105,-0.7075 -0.2988,0 -0.6709,0.059 -1.1162,0.1758 l 0.1758,-1.3887 c 0.1054,0.012 0.1904,0.018 0.2548,0.018 0.6739,0 1.2803,-0.1758 1.8194,-0.5273 0.539,-0.3516 0.8086,-0.8936 0.8086,-1.626 0,-0.5804 -0.1963,-1.0614 -0.5889,-1.4414 -0.3926,-0.381 -0.8994,-0.572 -1.5205,-0.572 -0.6152,0 -1.1279,0.194 -1.5381,0.58 -0.4101,0.387 -0.6738,0.967 -0.791,1.741 L 0.91406,-9.5977 C 1.1074,-10.658 1.5469,-11.48 2.2324,-12.063 c 0.6856,-0.583 1.5381,-0.874 2.5576,-0.875 0.7032,0 1.3506,0.151 1.9424,0.453 0.5918,0.302 1.0444,0.714 1.3579,1.235 0.3135,0.521 0.4702,1.075 0.4702,1.6611 0,0.5567 -0.1494,1.0635 -0.4482,1.5205 -0.2988,0.4571 -0.7412,0.8204 -1.3271,1.0899 0.7617,0.1758 1.3535,0.5405 1.7753,1.0942 0.4219,0.5537 0.6329,1.2466 0.6329,2.0786 0,1.125 -0.4102,2.0787 -1.2305,2.86088 C 7.1426,-0.1626 6.1055,0.22852 4.8516,0.22852 3.7207,0.22852 2.7817,-0.1084 2.0347,-0.78223 1.2876,-1.4561 0.86133,-2.3291 0.75586,-3.4014 z" id="path4369" style="font-size:18px;font-variant:normal;font-weight:normal;writing-mode:lr-tb;fill:#000000;fill-opacity:1;fill-rule:nonzero;stroke:none;font-family:Helvetica;-inkscape-font-specification:Helvetica"/></g></g><path d="m 440.1,262.55 0.85,-1.45 -14.65,-8.45 -0.85,1.45" id="path3375" style="fill:#000000;fill-opacity:1;fill-rule:nonzero;stroke:none"/><g transform="translate(7.9982,7.9981)" id="g3377" style="fill:#000000"><g transform="matrix(1,0,0,-1,444,171.9)" id="text3379" style="fill:#000000"><path d="m 14.109,-6.0234 2.274,0.5742 c -0.477,1.8672 -1.334,3.291 -2.572,4.2715 -1.239,0.98043 -2.752,1.47067 -4.5415,1.47067 -1.8515,0 -3.3574,-0.37695 -4.5175,-1.13086 C 3.5918,-1.5918 2.709,-2.6836 2.1035,-4.1133 1.498,-5.543 1.1953,-7.0781 1.1953,-8.7187 c 0,-1.7893 0.3418,-3.3493 1.0254,-4.6813 0.6836,-1.332 1.6562,-2.344 2.918,-3.036 1.2617,-0.691 2.6504,-1.037 4.166,-1.037 1.7183,0 3.1643,0.438 4.3363,1.313 1.171,0.875 1.988,2.105 2.449,3.691 l -2.238,0.528 c -0.399,-1.25 -0.977,-2.161 -1.735,-2.731 -0.758,-0.57 -1.711,-0.855 -2.8592,-0.855 -1.3203,0 -2.4238,0.316 -3.3105,0.949 -0.8868,0.633 -1.5098,1.482 -1.8692,2.549 -0.3594,1.066 -0.539,2.1657 -0.539,3.2985 0,1.461 0.2128,2.7364 0.6386,3.8262 0.4258,1.0899 1.0879,1.9043 1.9864,2.4434 0.8984,0.539 1.871,0.8086 2.9179,0.8086 1.273,0 2.352,-0.3672 3.234,-1.1016 0.883,-0.7344 1.481,-1.8242 1.793,-3.2695 z" id="path4356" style="font-size:24px;font-variant:normal;font-weight:normal;writing-mode:lr-tb;fill:#000000;fill-opacity:1;fill-rule:nonzero;stroke:none;font-family:Helvetica;-inkscape-font-specification:Helvetica"/><path d="m 19.25,0 0,-17.18 2.273,0 0,7.055 8.93,0 0,-7.055 2.273,0 0,17.18 -2.273,0 0,-8.0977 -8.93,0 0,8.0977 z" id="path4358" style="font-size:24px;font-variant:normal;font-weight:normal;writing-mode:lr-tb;fill:#000000;fill-opacity:1;fill-rule:nonzero;stroke:none;font-family:Helvetica;-inkscape-font-specification:Helvetica"/></g><g transform="matrix(1,0,0,-1,478.66,167.4)" id="text3383" style="fill:#000000"><path d="M 0.75586,-3.4014 2.3379,-3.6123 c 0.1816,0.8965 0.4907,1.5425 0.9272,1.938 0.4366,0.3955 0.9683,0.5932 1.5953,0.5932 0.7441,0 1.3725,-0.2578 1.8852,-0.7734 0.5127,-0.5156 0.769,-1.1543 0.769,-1.916 0,-0.7266 -0.2373,-1.3257 -0.7119,-1.7974 -0.4746,-0.4716 -1.0781,-0.7075 -1.8105,-0.7075 -0.2988,0 -0.6709,0.059 -1.1162,0.1758 l 0.1758,-1.3887 c 0.1054,0.012 0.1904,0.018 0.2548,0.018 0.6739,0 1.2803,-0.1758 1.8194,-0.5273 0.539,-0.3516 0.8086,-0.8936 0.8086,-1.626 0,-0.5804 -0.1963,-1.0614 -0.5889,-1.4414 -0.3926,-0.381 -0.8994,-0.572 -1.5205,-0.572 -0.6152,0 -1.1279,0.194 -1.5381,0.58 -0.4101,0.387 -0.6738,0.967 -0.791,1.741 L 0.91406,-9.5977 C 1.1074,-10.658 1.5469,-11.48 2.2324,-12.063 c 0.6856,-0.583 1.5381,-0.874 2.5576,-0.875 0.7032,0 1.3506,0.151 1.9424,0.453 0.5918,0.302 1.0444,0.714 1.3579,1.235 0.3135,0.521 0.4702,1.075 0.4702,1.6611 0,0.5567 -0.1494,1.0635 -0.4482,1.5205 -0.2988,0.4571 -0.7412,0.8204 -1.3271,1.0899 0.7617,0.1758 1.3535,0.5405 1.7753,1.0942 0.4219,0.5537 0.6329,1.2466 0.6329,2.0786 0,1.125 -0.4102,2.0787 -1.2305,2.86088 C 7.1426,-0.1626 6.1055,0.22852 4.8516,0.22852 3.7207,0.22852 2.7817,-0.1084 2.0347,-0.78223 1.2876,-1.4561 0.86133,-2.3291 0.75586,-3.4014 z" id="path4361" style="font-size:18px;font-variant:normal;font-weight:normal;writing-mode:lr-tb;fill:#000000;fill-opacity:1;fill-rule:nonzero;stroke:none;font-family:Helvetica;-inkscape-font-specification:Helvetica"/></g></g><path d="m 450.7,187.5 0.4,-1.65 -31.85,-8.5 3.2,1.7 5.5,2.35" id="path3387" style="fill:#000000;fill-opacity:1;fill-rule:nonzero;stroke:none"/><path d="m 318.3,55.098 -3.75,4.8 2.25,3.25 51.2,-17.55 1.85,-1.55 0,-0.85" id="path3389" style="fill:#000000;fill-opacity:1;fill-rule:nonzero;stroke:none"/></g></svg>